<?xml version="1.0" standalone="no"?>
<!DOCTYPE svg PUBLIC "-//W3C//DTD SVG 1.1//EN" "http://www.w3.org/Graphics/SVG/1.1/DTD/svg11.dtd" >
<svg xmlns="http://www.w3.org/2000/svg">
<metadata>
Created by FontForge 20120731 at Sat Jan  9 14:39:44 2016
 By Ads
</metadata>
<defs>
<font id="iconfont" horiz-adv-x="1024" >
  <font-face 
    font-family="iconfont"
    font-weight="500"
    font-stretch="normal"
    units-per-em="1024"
    panose-1="2 0 6 3 0 0 0 0 0 0"
    ascent="896"
    descent="-128"
    x-height="792"
    bbox="-512 -224 1526 896"
    underline-thickness="50"
    underline-position="-100"
    unicode-range="U+0078-E669"
  />
<missing-glyph horiz-adv-x="374" 
d="M34 0v682h272v-682h-272zM68 34h204v614h-204v-614z" />
    <glyph glyph-name=".notdef" horiz-adv-x="374" 
d="M34 0v682h272v-682h-272zM68 34h204v614h-204v-614z" />
    <glyph glyph-name=".null" horiz-adv-x="0" 
 />
    <glyph glyph-name="nonmarkingreturn" horiz-adv-x="341" 
 />
    <glyph glyph-name="x" unicode="x" horiz-adv-x="1001" 
d="M281 543q-27 -1 -53 -1h-83q-18 0 -36.5 -6t-32.5 -18.5t-23 -32t-9 -45.5v-76h912v41q0 16 -0.5 30t-0.5 18q0 13 -5 29t-17 29.5t-31.5 22.5t-49.5 9h-133v-97h-438v97zM955 310v-52q0 -23 0.5 -52t0.5 -58t-10.5 -47.5t-26 -30t-33 -16t-31.5 -4.5q-14 -1 -29.5 -0.5
t-29.5 0.5h-32l-45 128h-439l-44 -128h-29h-34q-20 0 -45 1q-25 0 -41 9.5t-25.5 23t-13.5 29.5t-4 30v167h911zM163 247q-12 0 -21 -8.5t-9 -21.5t9 -21.5t21 -8.5q13 0 22 8.5t9 21.5t-9 21.5t-22 8.5zM316 123q-8 -26 -14 -48q-5 -19 -10.5 -37t-7.5 -25t-3 -15t1 -14.5
t9.5 -10.5t21.5 -4h37h67h81h80h64h36q23 0 34 12t2 38q-5 13 -9.5 30.5t-9.5 34.5q-5 19 -11 39h-368zM336 498v228q0 11 2.5 23t10 21.5t20.5 15.5t34 6h188q31 0 51.5 -14.5t20.5 -52.5v-227h-327z" />
    <glyph glyph-name="uniE600" unicode="&#xe600;" 
d="M772.5 652.5q17.5 17.5 39.5 22.5t40.5 -2t31.5 -26.5t13 -50.5v-462q0 -28 -9 -52.5t-25.5 -43t-39 -28.5t-49.5 -10h-490q-27 0 -44 13.5t-23 33t-1 41.5t23 39q25 26 69.5 69.5t98.5 96t110.5 109t107.5 106t90.5 88.5t57 56.5z" />
    <glyph glyph-name="uniE601" unicode="&#xe601;" 
d="M861 639q4 -8 6 -18q1 -6 1.5 -11.5t0.5 -11.5q0 -11 -4 -23t-14 -22q-11 -11 -20 -19q-2 -3 -4.5 -5.5t-5 -4.5t-4.5 -4q-7 -8 -14 -13l-167 167q11 10 26 24q14 14 24 22q4 3 8.5 5.5t9 4.5t8.5 4q14 4 27 3.5t25 -4t21 -8.5q18 -10 41 -34.5t35 -51.5zM165 203
q6 6 25.5 26t49.5 49l65 66l72 72l192 192l167 -168l-192 -192l-71 -72l-34 -34q-16 -16 -31 -30q-28 -29 -47 -48t-22 -21q-9 -8 -20.5 -17t-24.5 -15q-12 -6 -36.5 -15t-50.5 -17.5t-50 -14.5t-35 -8q-25 -3 -33 7t-4 33q2 13 8.5 36.5t14 49t15 47t11.5 29.5q5 12 12 23
q2 3 5 6.5t6.5 7.5t7.5 8zM165 203zM463 35h80v-80h-80v80zM626 35h80v-80h-80v80zM789 35h80v-80h-80v80z" />
    <glyph glyph-name="uniE602" unicode="&#xe602;" 
d="M159 471v73h89l179 175q-1 3 -1.5 5.5t-0.5 4.5q0 10 5 18t13 12.5t17.5 4.5t18 -4.5t13 -12.5t4.5 -18q0 -14 -10.5 -24t-24.5 -10q-2 0 -6 1h-2l-156 -152h460l-155 152q-6 -1 -9 -1q-10 0 -18 4.5t-13 12.5t-5 17q0 15 10.5 25t25.5 10q10 0 18 -4.5t13 -12.5t5 -18
q0 -1 -0.5 -3t-1 -3t-1.5 -4l180 -175h90v-73h-737zM750 128q-3 -12 -9.5 -18.5t-11.5 -6.5l-5 -1h-394q-6 0 -10.5 2.5t-7.5 6t-5 7t-2 6.5l-1 3l-104 305l655 1z" />
    <glyph glyph-name="uniE603" unicode="&#xe603;" 
d="M12 -63zM709 -13v-134h100v134h134v100h-134v134h-100v-134h-134v-100h134zM672 -148v102h-136v164h136v104q-24 19 -46 31q45 40 70 95t25 119q0 33 -6.5 64.5t-19.5 59t-31 52t-40.5 43.5t-48.5 32.5t-55.5 21t-59.5 7.5q-108 0 -184.5 -82t-76.5 -198q0 -22 3 -43
t9 -41t15 -39q28 -57 73 -95q-98 -52 -157.5 -156.5t-59.5 -240.5h590zM1013 -63z" />
    <glyph glyph-name="uniE604" unicode="&#xe604;" 
d="M533 722zM507 600q65 0 110.5 -45.5t45.5 -110.5q0 -31 -12 -60t-33 -50t-50 -33t-61 -12v-436h2h2q18 0 30.5 12t12.5 34q0 52 19.5 104.5t49 93.5t64 86t64 83.5t49.5 85.5t20 91q0 129 -91.5 220.5t-221.5 91.5v-155zM507 289q-65 0 -110.5 45.5t-45.5 109.5
q0 43 20.5 78.5t57 56.5t78.5 21v155q-64 0 -121.5 -25t-99.5 -66.5t-67 -99t-25 -121.5q0 -43 15 -85t38 -77.5t51.5 -70.5t57 -70.5t52 -72t38 -80t14.5 -88.5q0 -20 14 -32.5t33 -13.5v436v0z" />
    <glyph glyph-name="uniE605" unicode="&#xe605;" 
d="M892 594q26 0 40 -7q7 -3 12 -7t8 -9q6 -10 5 -21q0 -4 -0.5 -7.5t-1 -6.5t-1.5 -6l-12 -33l-19 -55l-21 -59q-13 -38 -16 -47q-6 -17 -13.5 -29.5t-16.5 -19.5q-18 -14 -44 -14h-31h-59h-77h-84h-225l14 -80h456q44 0 44 -37q0 -18 -9 -31q-8 -13 -34 -13h-43h-84h-105
h-106h-87h-50q-6 0 -11.5 1t-10 2.5t-8.5 4.5q-12 8 -20 21q-4 6 -7.5 13t-6.5 15q-5 19 -7 29l-5 26l-10 51l-13 69l-15 77l-39 201h-68q-14 0 -22 6q-9 7 -16 16q-2 6 -4.5 11t-3.5 10t-1.5 10t-0.5 9q0 18 12 30q7 5 15 8t18 3h20h19h22h31q18 0 29 -5q5 -3 9.5 -6
t8.5 -7q6 -9 8 -17l5 -16q1 -4 3 -15v-5l4 -26l5 -34h620zM740 86q8 0 16.5 -1.5t16.5 -4.5q16 -6 27 -18q12 -12 19 -26q6 -15 6 -32q0 -8 -1.5 -16.5t-4.5 -15.5q-7 -14 -19 -27q-11 -11 -27 -17q-15 -7 -33 -7t-33 7q-16 7 -26 17q-12 13 -18 27q-7 15 -7 32q0 8 1.5 16
t5.5 16q6 14 18 26q5 6 12 10.5t14 7.5q5 2 10.5 3.5t11 2t11.5 0.5zM363 88q17 0 33 -6q15 -6 27 -18q6 -6 10.5 -12.5t7.5 -13.5q7 -16 7 -32.5t-7 -31.5q-6 -14 -18 -27q-12 -11 -27.5 -17.5t-32.5 -6.5q-18 0 -33 6q-15 7 -27 18q-12 13 -18 27q-6 15 -6 31.5t6 32.5
q3 7 7.5 13.5t10.5 12.5q4 4 9 7l8 6q5 3 10 5q4 1 8 2.5t8 2t8.5 1t8.5 0.5z" />
    <glyph glyph-name="uniE606" unicode="&#xe606;" 
d="M209 343l-2 5l-1 7l-1 4v4v6v4l2 6l1 6l3 7l2 7l4 8l5 7v5l1 5l1 7l2 7l2 9l2 3l2 4l2 4l3 2v6v6v7l1 10l2 11l3 13l4 14l2 7l3 9l3 7l4 8l4 10l4 8l5 9l6 9l3 5l3 4l7 10l7 10l7 9l9 10l9 9l9 10l11 10l8 7l8 6l9 7l10 5l9 5l11 5l11 5l11 4l11 3l12 4l11 3l13 2l13 2
l12 2l13 2h13h12h14h13l13 -1l13 -2l14 -1l12 -3l13 -3l13 -3l13 -4l13 -4l12 -5l12 -6l12 -5l11 -7l11 -7l9 -6l5 -4l4 -3l9 -7l8 -8l7 -7l7 -8l6 -8l7 -8l5 -9l5 -8l6 -9l4 -8l7 -17l4 -9l3 -8l3 -9l2 -8l2 -7l2 -9l4 -15l3 -13l2 -12l1 -10l2 -16l1 -2l2 -3l5 -8l3 -5
l2 -6l4 -6l3 -7l2 -8l2 -8l2 -8l1 -4l1 -6v-4l-1 -4v-6l-1 -5l-3 -10l-2 -5l-2 -6v-2v-1l3 -5l12 -17l9 -13l4 -8l6 -10l5 -10l6 -11l6 -12l7 -14l4 -9l3 -8l3 -9l3 -8l2 -9l3 -8l2 -15l3 -16l1 -14v-7v-6v-6l-1 -7l-1 -12l-2 -11l-4 -10l-1 -4l-2 -4l-2 -4l-2 -4l-3 -2
l-2 -4l-3 -3l-2 -2l-4 -1l-3 -2h-2h-2h-1h-3l-4 3l-2 1l-2 1l-3 3l-2 2l-4 4l-4 6l-4 6l-3 5l-4 6l-5 10l-5 11l-1 1h-1l-2 -2l-2 -3l-2 -3l-3 -11l-6 -15l-7 -17l-6 -9l-6 -10l-7 -10l-7 -10l-3 -5l-5 -5l-10 -10l1 -1l1 -1l5 -3l22 -11l9 -5l9 -5l9 -7l8 -6l4 -3l2 -4
l3 -4l3 -4l1 -4l2 -4v-4l1 -4l-1 -3v-3v-3l-2 -3v-2l-2 -3l-4 -5l-3 -5l-3 -3l-3 -2l-5 -5l-7 -3l-7 -4l-8 -3l-9 -4l-4 -1l-4 -1l-10 -3l-10 -2l-11 -2l-11 -2h-12l-11 -2h-12h-13h-12l-14 1l-12 1l-13 2l-13 1l-14 2l-14 4l-13 2l-13 4l-14 5l-13 4l-7 2l-6 2l-4 2l-4 1
h-5h-6l-12 1h-7l-8 1l-5 -5l-7 -4l-10 -5l-11 -6l-7 -3l-6 -3l-16 -6l-8 -2l-8 -2l-12 -3h-8l-8 -1l-8 -1h-10h-9h-10h-20h-22l-22 2l-11 2l-11 2l-10 1l-10 2l-10 3l-9 2l-9 4l-8 3l-8 4l-6 4l-7 4l-2 3l-3 3l-2 2l-2 3l-2 3l-1 3l-2 6l-1 3l-1 3v3l1 4v4l1 3v2v5v4l2 5
l1 4l3 5l2 2l1 3l4 5l3 2l4 2l2 2l5 2l3 2l5 2l5 2l5 2l6 1l6 1h7l7 1l2 1h1v1l-1 2l-4 2l-10 8l-6 5l-8 7l-7 7l-8 10l-9 10l-4 6l-4 6l-4 7l-3 7l-5 7l-3 8l-4 9l-3 9l-3 8l-2 11h-1h-1v1h-1l-2 -1h-1l-1 -2v-2l-1 -2l-1 -3l-5 -8l-2 -5l-4 -4l-3 -5l-5 -6l-4 -4l-5 -5
l-5 -5l-6 -3l-6 -4l-5 -2l-7 -2h-7h-1h-2l-1 3l-2 1l-2 6l-2 4l-2 4l-1 5l-1 5l-2 11l-1 7v7v15l1 16l1 8l2 9l1 9l3 8l3 10l3 10l3 9l4 10l5 9l5 11l5 9l7 11l7 9l7 10l6 8l7 8l8 8l4 4l5 5l6 6l7 5l11 10l8 6z" />
    <glyph glyph-name="uniE607" unicode="&#xe607;" 
d="M957 492q-2 5 -5.5 9.5t-8.5 7.5t-11 4l-271 42l-120 259q-4 8 -12 13t-17 5q-21 0 -29 -18l-122 -258l-271 -41q-19 -3 -25.5 -21.5t7.5 -32.5l196 -202l-47 -285q-3 -20 13.5 -31.5t33.5 -1.5l242 133l242 -134q7 -4 15 -4h1q13 0 22.5 9.5t9.5 22.5q0 6 -2 11l-45 279
l197 201q6 7 8 15.5t-1 17.5z" />
    <glyph glyph-name="uniE608" unicode="&#xe608;" 
d="M767 -64q-9 1 -15 4l-242 134l-242 -133q-4 -2 -8 -3t-8.5 -1t-9 1.5t-7.5 4.5q-17 11 -14 31l47 285l-196 202q-14 14 -8 32.5t25 21.5l156 26q8 2 16 -1t13.5 -9.5t6.5 -15.5q3 -13 -5 -23.5t-21 -13.5l-95 -16l166 -170q3 -4 5 -8.5t3 -9.5t0 -10l-39 -235l200 110
q15 8 31 -1l199 -110l-38 236q-3 16 9 27l164 169l-225 34q-8 2 -14.5 6.5t-9.5 11.5l-100 213l-100 -212q-5 -12 -17.5 -16.5t-24.5 1t-16.5 18t0.5 24.5l130 274q8 18 29 18q9 0 17 -5t12 -13l120 -259l271 -42q19 -3 25 -21.5t-7 -32.5l-197 -201l46 -285q1 -6 -0.5 -12
t-5 -11t-8.5 -8q-8 -6 -18 -6z" />
    <glyph glyph-name="uniE609" unicode="&#xe609;" 
d="M512 832q-146 0 -249 -103t-103 -249q0 -53 34 -127.5t76.5 -136.5t98 -130.5t80 -95.5t40.5 -44q9 -10 23 -10h1q14 0 23 11l109 125q219 268 219 408q0 146 -103 249t-249 103zM512 320q-66 0 -113 47t-47 113t47 113t113 47t113 -47t47 -113t-47 -113t-113 -47z" />
    <glyph glyph-name="uniE60A" unicode="&#xe60a;" 
d="M512 288q-79 0 -135.5 56.5t-56.5 135.5t56.5 135.5t135.5 56.5t135.5 -56.5t56.5 -135.5t-56.5 -135.5t-135.5 -56.5zM512 608q-53 0 -90.5 -37.5t-37.5 -90.5t37.5 -90.5t90.5 -37.5t90.5 37.5t37.5 90.5t-37.5 90.5t-90.5 37.5zM512 -64q-13 1 -22 9q-10 9 -10 22.5
t9 22.5q39 41 86 97.5t100.5 129.5t89 144.5t35.5 118.5q0 119 -84.5 203.5t-203.5 84.5t-203.5 -84.5t-84.5 -203.5q0 -57 52.5 -151.5t151.5 -215.5q9 -11 7.5 -24t-12 -21.5t-23.5 -7t-21 11.5q-219 268 -219 408q0 146 103 249t249 103t249 -103t103 -249
q0 -53 -34 -127.5t-76.5 -136.5t-98 -130.5t-80 -95.5t-40.5 -44q-9 -10 -23 -10z" />
    <glyph glyph-name="uniE60B" unicode="&#xe60b;" 
d="M369 66v-1q-4 0 -10 -1h-4h-3q-52 0 -89 36.5t-38 88.5q-2 53 34 91q37 39 89 40h2h2q20 0 38.5 -6t35.5 -18q46 -16 92 45t19 95q-9 7 -18 17q-2 1 -3 3q-31 35 -33 80q-1 53 35 91t89 40h1h3q44 0 78.5 -28t44.5 -71q4 -14 7 -30.5t2 -50t-9 -68.5t-31 -83t-59 -96
q-28 -38 -58 -67.5t-56.5 -47.5t-50.5 -31t-46 -18.5t-36.5 -7.5t-27.5 -2zM365 130q7 0 16 1t26.5 4.5t37.5 13.5t43.5 25.5t51 42t53.5 61.5q38 52 59.5 101.5t24 85.5t1 54.5t-5.5 31.5q-2 9 -6 17t-10 14.5t-13 11t-15.5 7t-17.5 2.5t-17.5 -2.5t-15.5 -7t-12.5 -10.5
t-9.5 -13t-6 -15.5t-2 -16.5q1 -13 5.5 -23t11.5 -17v-1q6 -6 12 -10q4 -3 6 -6q10 -10 16.5 -24t11 -36.5t-5.5 -53.5t-35 -64q-55 -74 -124 -74q-24 0 -47 9q-4 2 -8 5q-17 14 -38 14q-28 -1 -46 -20t-17 -45q0 -13 5 -24.5t13.5 -19.5t20 -13t24.5 -5q1 1 3 1q6 0 10 -1z
M512 -67q-91 0 -174 35q-12 5 -17 17t0 24.5t17.5 17.5t24.5 0q71 -30 149 -30q104 0 192.5 51.5t140 140t51.5 192.5q0 39 -8 77t-22.5 72t-35.5 65t-46.5 57t-57 47t-65.5 35.5t-72 22.5t-77 8q-104 0 -192.5 -51.5t-140 -140t-51.5 -192.5q0 -111 59 -204q4 -8 4.5 -16.5
t-3.5 -16t-11 -11.5q-12 -7 -25 -4t-20 14q-68 109 -68 238q0 91 35.5 174t95.5 143t143 95.5t174 35.5t174 -35.5t143 -95.5t95.5 -143t35.5 -174t-35.5 -174t-95.5 -143t-143 -95.5t-174 -35.5z" />
    <glyph glyph-name="uniE60C" unicode="&#xe60c;" 
d="M512 -64q-185 0 -316.5 131.5t-131.5 316.5t131.5 316.5t316.5 131.5t316.5 -131.5t131.5 -316.5t-131.5 -316.5t-316.5 -131.5zM512 768q-104 0 -192.5 -51.5t-140 -140t-51.5 -192.5t51.5 -192.5t140 -140t192.5 -51.5t192.5 51.5t140 140t51.5 192.5t-51.5 192.5
t-140 140t-192.5 51.5zM727 502.5q-9 9.5 -22.5 9.5t-22.5 -9l-234 -236l-103 106q-9 9 -22.5 9.5t-23 -9t-9.5 -22.5t9 -23l126 -129h1v-1q1 -1 7 -4q0 -1 1 -1.5t2 -1.5q6 -2 12 -2q7 0 12 2l2 2q1 0 1.5 0.5t1.5 0.5q4 2 6 4v1l256 259q10 9 9.5 22t-9.5 22.5z" />
    <glyph glyph-name="uniE60D" unicode="&#xe60d;" 
d="M512 832q-185 0 -316.5 -131.5t-131.5 -316.5t131.5 -316.5t316.5 -131.5t316.5 131.5t131.5 316.5t-131.5 316.5t-316.5 131.5zM695 246q2 -2 3.5 -4.5t2.5 -5.5l2 -4q1 -3 1 -6v-6q0 -2 -1 -4l-2 -6q-1 -2 -2.5 -4.5t-3.5 -4.5q-10 -10 -23 -10t-23 10l-137 138
l-138 -137q-10 -9 -23 -9q-3 0 -6 0.5t-6 2t-5.5 3t-4.5 4.5q-5 4 -7.5 10t-2.5 12t2.5 12t7.5 11l138 136l-138 138q-9 9 -9 22.5t9.5 23t22.5 9.5t23 -10l137 -138l138 137q10 9 23 9t22.5 -9.5t9.5 -22.5t-10 -23l-138 -136z" />
    <glyph glyph-name="uniE60E" unicode="&#xe60e;" 
d="M512 -64q-185 0 -316.5 131.5t-131.5 316.5t131.5 316.5t316.5 131.5t316.5 -131.5t131.5 -316.5t-131.5 -316.5t-316.5 -131.5zM512 768q-104 0 -192.5 -51.5t-140 -140t-51.5 -192.5t51.5 -192.5t140 -140t192.5 -51.5t192.5 51.5t140 140t51.5 192.5t-51.5 192.5
t-140 140t-192.5 51.5zM557 383l138 136q10 10 10 23t-9.5 22.5t-22.5 9.5t-23 -9l-138 -137l-137 137q-6 6 -14 8t-16.5 0t-14.5 -8q-9 -9 -9 -22.5t9 -22.5l136 -137l-137 -136q-9 -9 -9.5 -22.5t9 -23t22.5 -9.5q14 0 23 10l138 136l138 -140q10 -9 23 -9t22.5 9.5
t9.5 22.5t-9 23z" />
    <glyph glyph-name="uniE60F" unicode="&#xe60f;" 
d="M512 832q-185 0 -316.5 -131.5t-131.5 -316.5t131.5 -316.5t316.5 -131.5t316.5 131.5t131.5 316.5t-131.5 316.5t-316.5 131.5zM671 320h-191q-9 0 -16 4.5t-11.5 11.5t-4.5 16v255q0 13 9.5 22.5t22.5 9.5t22.5 -9.5t9.5 -22.5v-223h159q7 0 13 -2.5t10 -7t6.5 -10
t2.5 -12.5t-2.5 -12.5t-6.5 -10t-10 -7t-13 -2.5z" />
    <glyph glyph-name="uniE610" unicode="&#xe610;" 
d="M512 832q-185 0 -316.5 -131.5t-131.5 -316.5t131.5 -316.5t316.5 -131.5t316.5 131.5t131.5 316.5t-131.5 316.5t-316.5 131.5zM512 0q-104 0 -192.5 51.5t-140 140t-51.5 192.5t51.5 192.5t140 140t192.5 51.5t192.5 -51.5t140 -140t51.5 -192.5t-51.5 -192.5
t-140 -140t-192.5 -51.5zM672 384h-160v224q0 9 -4.5 16t-11.5 11.5t-16 4.5q-7 0 -12.5 -2.5t-10 -7t-7 -10.5t-2.5 -12v-256q0 -13 9.5 -22.5t22.5 -9.5h192q7 0 12.5 2.5t10 7t7 10t2.5 12.5q0 13 -9.5 22.5t-22.5 9.5z" />
    <glyph glyph-name="uniE611" unicode="&#xe611;" 
d="M943 127l-341 609q-35 63 -90.5 63t-90.5 -63l-340 -609q-34 -62 -6 -111q29 -48 100 -48h674q71 0 99.5 48.5t-5.5 110.5zM480 576q0 13 9.5 22.5t22.5 9.5t22.5 -9.5t9.5 -22.5v-288q0 -13 -9.5 -22.5t-22.5 -9.5t-22.5 9.5t-9.5 22.5v288zM512 64q-13 0 -24 6.5
t-17.5 17.5t-6.5 24q0 20 14 34t34 14t34 -14t14 -34t-14 -34t-34 -14z" />
    <glyph glyph-name="uniE612" unicode="&#xe612;" 
d="M849 -33h-674q-71 0 -99.5 49t5.5 111l340 609q35 63 91 63q13 0 25.5 -4t24 -12t22 -20t18.5 -27l341 -609q34 -63 5.5 -111.5t-99.5 -48.5zM512 735q-9 0 -18 -8t-17 -22l-340 -610q-17 -30 -7 -47t45 -17h674q35 0 45 17t-7 47l-341 610q-16 30 -34 30zM512 256
q-13 0 -22.5 9.5t-9.5 22.5v288q0 13 9.5 22.5t22.5 9.5t22.5 -9.5t9.5 -22.5v-288q0 -13 -9.5 -22.5t-22.5 -9.5zM512 144zM464 144q0 20 14 34t34 14q13 0 24 -6.5t17.5 -17.5t6.5 -24q0 -20 -14 -34t-34 -14t-34 14t-14 34z" />
    <glyph glyph-name="uniE613" unicode="&#xe613;" 
d="M832 768h-640q-40 0 -68 -28t-28 -68v-512q0 -40 28 -68t68 -28h211l86 -87q10 -9 23 -9t23 9l86 87h211q40 0 68 28t28 68v512q0 40 -28 68t-68 28zM336 384q-20 0 -34 14t-14 34t14 34t34 14t34 -14t14 -34t-14 -34t-34 -14zM528 384q-20 0 -34 14t-14 34t14 34t34 14
t34 -14t14 -34t-14 -34t-34 -14zM720 384q-20 0 -34 14t-14 34t14 34t34 14t34 -14t14 -34t-14 -34t-34 -14z" />
    <glyph glyph-name="uniE614" unicode="&#xe614;" 
d="M512 -32q-13 0 -23 9l-96 96q-9 10 -9 23t9.5 22.5t22.5 9.5t23 -9l73 -74l73 74q10 9 23 9h224q13 0 22.5 9.5t9.5 22.5v512q0 13 -9.5 22.5t-22.5 9.5h-640q-13 0 -22.5 -9.5t-9.5 -22.5v-512q0 -13 9.5 -22.5t22.5 -9.5h96q13 0 22.5 -9.5t9.5 -22.5t-9.5 -22.5
t-22.5 -9.5h-96q-40 0 -68 28t-28 68v512q0 40 28 68t68 28h640q40 0 68 -28t28 -68v-512q0 -40 -28 -68t-68 -28h-211l-86 -87q-10 -9 -23 -9zM336 384q-20 0 -34 14t-14 34t14 34t34 14t34 -14t14 -34t-14 -34t-34 -14zM528 384q-20 0 -34 14t-14 34t14 34t34 14t34 -14
t14 -34t-14 -34t-34 -14zM720 384q-20 0 -34 14t-14 34t14 34t34 14t34 -14t14 -34t-14 -34t-34 -14z" />
    <glyph glyph-name="uniE615" unicode="&#xe615;" 
d="M736 768q-102 0 -176 -70q-6 -5 -48 -48l-47 47q-74 71 -177 71q-106 0 -181 -75t-75 -181q0 -100 76 -182l317 -321q42 -41 87 -41t87 42l316 320l3 2q25 31 37.5 49.5t24.5 54t12 76.5q0 106 -75 181t-181 75z" />
    <glyph glyph-name="uniE616" unicode="&#xe616;" 
d="M512 -32q-45 0 -87 41l-319 323q-25 31 -37.5 49.5t-24.5 54t-12 76.5q0 106 75 181t181 75q40 0 77.5 -12t69.5 -35q11 -7 13.5 -20t-5.5 -24t-21 -13.5t-24 5.5q-24 17 -52 26t-58 9q-79 0 -135.5 -56.5t-56.5 -135.5q0 -43 13 -70t46 -69l316 -319q22 -22 41 -22
q18 0 41 23l317 320q58 62 58 137q0 79 -56.5 135.5t-135.5 56.5q-75 0 -130 -50l-134 -134q-9 -10 -22 -10t-22.5 9.5t-9.5 22.5t9 23l135 135q75 68 174 68q106 0 181 -75t75 -181q0 -100 -76 -182l-317 -320q-42 -42 -87 -42z" />
    <glyph glyph-name="uniE617" unicode="&#xe617;" 
d="M526 -28q-15 0 -32.5 9.5t-36.5 27.5l-182 183h-83q-40 0 -68 28t-28 68v192q0 40 28 68t68 28h83l182 183q37 37 69 37q20 0 35 -15t15 -45v-704q0 -31 -15 -45.5t-35 -14.5zM688 166q-11 0 -19 6q-11 7 -13 20.5t6 23.5l12 18q22 29 32 45t20 45t10 60q0 33 -9 60.5
t-18.5 42.5t-29.5 42q-10 13 -17 23q-8 10 -6 23.5t13 20.5q7 5 15.5 6t16.5 -2.5t13 -10.5q3 -5 6.5 -9.5t9.5 -11.5q23 -31 34.5 -49.5t23.5 -55.5t12 -79q0 -31 -6 -58.5t-19 -52.5t-22 -39t-27 -38l-12 -17q-10 -13 -26 -13zM796 57q-12 0 -21 8q-10 9 -10.5 22t7.5 23
q58 66 91 130t33 144t-33 144t-91 130q-8 10 -7.5 23t10.5 22q7 6 15.5 7.5t16.5 -1t14 -9.5q63 -73 101 -147.5t38 -168.5t-38 -168.5t-101 -147.5q-2 -2 -4 -3.5t-4 -2.5l-4 -2l-4 -2h-4q-2 -1 -5 -1z" />
    <glyph glyph-name="uniE618" unicode="&#xe618;" 
d="M526 -28q-15 0 -32.5 9.5t-36.5 27.5l-182 183h-83q-40 0 -68 28t-28 68v192q0 40 28 68t68 28h83l182 183q37 37 69 37q20 0 35 -15t15 -45v-704q0 -31 -15 -45.5t-35 -14.5zM192 512q-13 0 -22.5 -9.5t-9.5 -22.5v-192q0 -13 9.5 -22.5t22.5 -9.5h96q13 0 23 -9
l192 -192l9 -9v676q-5 -4 -9 -9l-192 -192q-10 -9 -23 -9h-96zM688 166q-11 0 -19 6q-11 7 -13 20.5t6 23.5l12 18q22 29 32 45t20 45t10 60q0 33 -9 60.5t-18.5 42.5t-29.5 42q-10 13 -17 23q-8 10 -6 23.5t13 20.5q7 5 15.5 6t16.5 -2.5t13 -10.5q3 -5 6.5 -9.5t9.5 -11.5
q23 -31 34.5 -49.5t23.5 -55.5t12 -79q0 -31 -6 -58.5t-19 -52.5t-22 -39t-27 -38l-12 -17q-10 -13 -26 -13zM796 57q-12 0 -21 8q-10 9 -10.5 22t7.5 23q58 66 91 130t33 144t-33 144t-91 130q-8 10 -7.5 23t10.5 22q7 6 15.5 7.5t16.5 -1t14 -9.5q63 -73 101 -147.5
t38 -168.5t-38 -168.5t-101 -147.5q-2 -2 -4 -3.5t-4 -2.5l-4 -2l-4 -2h-4q-2 -1 -5 -1z" />
    <glyph glyph-name="uniE619" unicode="&#xe619;" 
d="M672 -16q-20 0 -34 14l-352 352q-14 14 -14 34t14 34l352 352q9 9 21.5 12.5t25 0t21.5 -12.5q14 -14 14 -34t-14 -34l-318 -318l318 -318q14 -14 14 -34t-14 -34t-34 -14z" />
    <glyph glyph-name="uniE61A" unicode="&#xe61a;" 
d="M512 832q-185 0 -316.5 -131.5t-131.5 -316.5t131.5 -316.5t316.5 -131.5t316.5 131.5t131.5 316.5t-131.5 316.5t-316.5 131.5zM289 72q7 0 10 1q47 17 90 28t68 13q12 1 20.5 10t8.5 22v59q0 15 -11 24q-37 32 -54.5 94.5t-17.5 128.5q0 136 125 136q40 0 66 -15
t39 -45t13 -76q0 -21 -3 -44.5t-9 -45.5t-14 -43t-18 -39t-21.5 -33t-24.5 -24q-12 -10 -12 -25v-55q0 -3 0.5 -5.5t1 -4.5t1.5 -4t2.5 -4t2.5 -3l4 -4q1 -1 3 -2.5t4.5 -2.5t4.5 -1.5t5 -0.5q50 -6 148 -45h3q1 -1 2 -1q-47 -31 -101.5 -48t-112.5 -17q-122 0 -223 72z
M765 95q0 23 -20 31q-80 31 -137 43v14q48 45 75 121.5t27 147.5q0 64 -21.5 108.5t-62 68t-98.5 23.5q-59 0 -101.5 -23.5t-65 -68.5t-22.5 -108q0 -17 1 -36t6 -51.5t13.5 -61t24.5 -59.5t38 -53v-17q-61 -11 -145 -41q-11 -3 -16.5 -13.5t-3.5 -21.5q-60 53 -94.5 127.5
t-34.5 158.5q0 159 112.5 271.5t271.5 112.5t271.5 -112.5t112.5 -271.5q0 -85 -35 -160t-96 -129z" />
    <glyph glyph-name="uniE61B" unicode="&#xe61b;" 
d="M512 832q-185 0 -316.5 -131.5t-131.5 -316.5t131.5 -316.5t316.5 -131.5t316.5 131.5t131.5 316.5t-131.5 316.5t-316.5 131.5zM512 64q-20 0 -34 14t-14 34t14 34t34 14q13 0 24 -6.5t17.5 -17.5t6.5 -24q0 -20 -14 -34t-34 -14zM601 391q-19 -19 -28.5 -29t-19 -26
t-9.5 -28v-54q0 -13 -9.5 -22.5t-22.5 -9.5q-9 0 -16 4.5t-11.5 12t-4.5 15.5v54q0 25 13 50t25.5 39.5t36.5 38.5q18 17 26.5 26.5t17.5 23.5t9 24q0 26 -13 48.5t-35 35.5t-48 13q-40 0 -68 -27.5t-28 -67.5q0 -13 -9.5 -22.5t-22.5 -9.5t-22.5 9.5t-9.5 22.5
q0 66 47 112.5t113 46.5q43 0 80 -21.5t58.5 -58.5t21.5 -81q0 -14 -4.5 -28t-10 -24t-17 -24t-18.5 -21.5t-21 -21.5z" />
    <glyph glyph-name="uniE61C" unicode="&#xe61c;" 
d="M512 112zM464 112q0 20 14 34t34 14q13 0 24 -6.5t17.5 -17.5t6.5 -24q0 -20 -14 -34t-34 -14t-34 14t-14 34zM512 -64q-185 0 -316.5 131.5t-131.5 316.5t131.5 316.5t316.5 131.5t316.5 -131.5t131.5 -316.5t-131.5 -316.5t-316.5 -131.5zM512 768q-104 0 -192.5 -51.5
t-140 -140t-51.5 -192.5t51.5 -192.5t140 -140t192.5 -51.5t192.5 51.5t140 140t51.5 192.5t-51.5 192.5t-140 140t-192.5 51.5zM512 222q-9 0 -16 4.5t-11.5 12t-4.5 15.5v54q0 25 13 50t25.5 39.5t36.5 38.5q18 18 26.5 27t17.5 23t9 24q0 26 -13 48.5t-35 35.5t-48 13
q-40 0 -68 -27.5t-28 -67.5q0 -13 -9.5 -22.5t-22.5 -9.5t-22.5 9.5t-9.5 22.5q0 66 47 112.5t113 46.5q43 0 80 -21.5t58.5 -58.5t21.5 -81q0 -22 -12 -45.5t-24 -37t-35 -36.5q-19 -19 -28.5 -29t-19 -26t-9.5 -28v-54q0 -13 -9.5 -22.5t-22.5 -9.5z" />
    <glyph glyph-name="uniE61D" unicode="&#xe61d;" 
d="M761 364l1 1t1 2q2 4 3 9t1.5 10t-0.5 10t-2.5 9.5t-4.5 9t-7 7.5l-353 334q-10 9 -22 12t-24.5 -0.5t-21.5 -13.5q-5 -5 -8.5 -12t-4.5 -14.5t0.5 -15t5 -14t9.5 -12.5l317 -299l-316 -305q-14 -13 -14.5 -33t13.5 -35q15 -14 35 -14q19 0 33 13l350 338l1 1v1q1 0 1 1
h1q2 2 5 7q1 2 1 3z" />
    <glyph glyph-name="uniE61E" unicode="&#xe61e;" 
d="M832 800h-640q-40 0 -68 -28t-28 -68v-640q0 -40 28 -68t68 -28h640q40 0 68 28t28 68v640q0 40 -28 68t-68 28zM727 458l-256 -259v-1q-2 -2 -6 -4h-1q-1 -1 -2 -1.5t-2 -1.5q-6 -2 -12 -2t-12 2q-1 1 -2 1.5t-1 1.5q-6 3 -7 4v1h-1l-126 129q-9 10 -9 23t9.5 22.5t23 9
t22.5 -9.5l103 -106l234 236q9 9 22.5 9t22.5 -9.5t9.5 -22.5t-9.5 -22z" />
    <glyph glyph-name="uniE61F" unicode="&#xe61f;" 
d="M832 -32h-640q-40 0 -68 28t-28 68v640q0 40 28 68t68 28h640q40 0 68 -28t28 -68v-640q0 -40 -28 -68t-68 -28zM192 736q-13 0 -22.5 -9.5t-9.5 -22.5v-640q0 -13 9.5 -22.5t22.5 -9.5h640q13 0 22.5 9.5t9.5 22.5v640q0 13 -9.5 22.5t-22.5 9.5h-640z" />
    <glyph glyph-name="uniE620" unicode="&#xe620;" 
d="M727 502.5q-9 9.5 -22.5 9.5t-22.5 -9l-234 -236l-103 106q-9 9 -22.5 9.5t-23 -9t-9.5 -22.5t9 -23l126 -129h1v-1q1 -1 7 -4q0 -1 1 -1.5t2 -1.5q3 -1 6 -1.5t6 -0.5q7 0 12 2l2 2q1 0 1.5 0.5t1.5 0.5q4 2 6 4v1l256 259q10 9 9.5 22t-9.5 22.5zM832 -32h-640
q-40 0 -68 28t-28 68v640q0 40 28 68t68 28h640q40 0 68 -28t28 -68v-640q0 -40 -28 -68t-68 -28zM192 736q-13 0 -22.5 -9.5t-9.5 -22.5v-640q0 -13 9.5 -22.5t22.5 -9.5h640q13 0 22.5 9.5t9.5 22.5v640q0 13 -9.5 22.5t-22.5 9.5h-640z" />
    <glyph glyph-name="uniE621" unicode="&#xe621;" 
d="M829 699q-64 64 -145.5 97.5t-171.5 33.5t-171.5 -33.5t-145.5 -97.5q-42 -42 -71.5 -92.5t-44.5 -107t-15 -115.5q0 -89 34 -170.5t97.5 -145t145 -97t171.5 -33.5t171.5 33.5t145 97t97.5 145t34 170.5q0 59 -15 115.5t-44.5 107t-71.5 92.5zM736 352h-192v-192
q0 -13 -9.5 -22.5t-22.5 -9.5t-22.5 9.5t-9.5 22.5v192h-192q-13 0 -22.5 9.5t-9.5 22.5t9.5 22.5t22.5 9.5h192v192q0 13 9.5 22.5t22.5 9.5t22.5 -9.5t9.5 -22.5v-192h192q13 0 22.5 -9.5t9.5 -22.5t-9.5 -22.5t-22.5 -9.5z" />
    <glyph glyph-name="uniE622" unicode="&#xe622;" 
d="M512 -62q-90 0 -171.5 33.5t-145 97t-97.5 145t-34 170.5q0 59 15 115.5t44.5 107t71.5 92.5q64 64 145.5 97.5t171.5 33.5t171.5 -33.5t145.5 -97.5q42 -42 71.5 -92.5t44.5 -107t15 -115.5q0 -89 -34 -170.5t-97.5 -145t-145 -97t-171.5 -33.5zM512 766q-77 0 -147 -29
t-124.5 -83t-83.5 -123.5t-29 -146.5t29 -146.5t83.5 -123.5t124.5 -83t147 -29q51 0 99.5 13t92 38t80.5 61q54 54 83 124t29 146.5t-29 146t-83.5 123.5t-124.5 83t-147 29zM736 416h-192v192q0 13 -9.5 22.5t-22.5 9.5t-22.5 -9.5t-9.5 -22.5v-192h-192q-13 0 -22.5 -9.5
t-9.5 -22.5t9.5 -22.5t22.5 -9.5h192v-192q0 -13 9.5 -22.5t22.5 -9.5t22.5 9.5t9.5 22.5v192h192q13 0 22.5 9.5t9.5 22.5t-9.5 22.5t-22.5 9.5z" />
    <glyph glyph-name="uniE623" unicode="&#xe623;" 
d="M1 508l42 -53q2 1 5 3.5t12.5 8.5t19 11t21.5 10.5t22.5 7.5t20 0.5t15.5 -8.5q15 -18 87.5 -246.5t89.5 -261.5q13 -26 34 -50t50.5 -42.5t63 -18.5t70.5 21q35 22 82.5 60.5t111.5 103t120 136t102.5 164.5t63.5 182q24 135 -62 187q-70 43 -173 11q-105 -33 -163 -122
q-30 -47 -40 -101q45 27 77.5 23t50.5 -25t17 -58.5t-23 -77.5q-31 -55 -58.5 -95.5t-50 -63t-36.5 -22.5q-21 0 -39 46.5t-46 154.5q-6 24 -12.5 62t-12.5 70t-14 68t-19 63t-26.5 48.5t-39 30.5t-52.5 3q-111 -21 -275 -191z" />
    <glyph glyph-name="uniE624" unicode="&#xe624;" 
d="M512 830q-73 0 -141 -22.5t-122.5 -64t-96 -96t-64 -122.5t-22.5 -141q0 -169 113 -296q109 -123 270 -146q32 -4 63 -4q91 0 173.5 35.5t142 95t95 142t35.5 173.5t-35.5 173.5t-95 142t-142 95t-173.5 35.5zM544 160q0 -13 -9.5 -22.5t-22.5 -9.5t-22.5 9.5t-9.5 22.5
v288q0 13 9.5 22.5t22.5 9.5t22.5 -9.5t9.5 -22.5v-288zM512 544q-20 0 -34 14t-14 34t14 34t34 14t34 -14t14 -34t-14 -34t-34 -14z" />
    <glyph glyph-name="uniE625" unicode="&#xe625;" 
d="M512 -62q-91 0 -173.5 35.5t-142 95t-95 142t-35.5 173.5q0 61 16 118.5t45 106.5t70 90t90 70t106.5 45t118.5 16q91 0 173.5 -35.5t142 -95t95 -142t35.5 -173.5q0 -169 -113 -296q-109 -123 -270 -146q-32 -4 -63 -4zM512 766q-104 0 -192 -51t-139 -139t-51 -192
t51 -192t139 -139t192 -51t192 51t139 139t51 192t-51 192t-139 139t-192 51zM512 592zM464 592q0 20 14 34t34 14t34 -14t14 -34t-14 -34t-34 -14t-34 14t-14 34zM512 128q-13 0 -22.5 9.5t-9.5 22.5v288q0 13 9.5 22.5t22.5 9.5t22.5 -9.5t9.5 -22.5v-288
q0 -13 -9.5 -22.5t-22.5 -9.5z" />
    <glyph glyph-name="uniE626" unicode="&#xe626;" 
d="M332 427h30q4 0 9.5 3.5t12 10.5t8.5 16l91 182q0 5 -0.5 8t-1.5 7t-3 6.5t-5 4.5t-8 3t-12 1h-31q-3 -2 -8 -4.5t-13.5 -10.5t-8.5 -15l-91 -182q0 -11 1.5 -16t8.5 -9.5t21 -4.5zM634 427h31q7 0 12 1t8.5 3t5.5 4.5t2.5 6.5t1 7t0.5 8l-91 182q0 3 -1.5 6.5t-4.5 6.5
t-6 5.5t-6.5 4.5t-6 3.5t-4.5 2.5l-1 1h-30q-11 0 -17 -2t-9 -7t-4 -9.5t-1 -11.5l91 -182q3 -13 13.5 -21t16.5 -9zM240 -57q0 -1 0.5 -2t1.5 -4.5t2.5 -6t4 -6.5t5.5 -6.5t7.5 -4t9.5 -1.5l482 1h3q2 0 6.5 1.5t8.5 4.5t8 9.5t7 16.5l152 390l-850 1zM332 -28q-13 0 -22 9
t-9 22t9 22t22 9t22 -9t9 -22t-9 -22t-22 -9zM453 -28q-13 0 -22 9t-9 22t9 22t22 9t22 -9t9 -22t-9 -22t-22 -9zM574 -28q-13 0 -22 9t-9 22q0 8 4 15.5t11.5 11.5t15.5 4q13 0 22 -9t9 -22q0 -6 -2.5 -12t-6.5 -10t-10 -6.5t-12 -2.5zM695 -28q-13 0 -22 9t-9 22t9 22
t22 9t22 -9t9 -22t-9 -22t-22 -9zM817 276q6 0 12 -2.5t10 -6.5t6.5 -9.5t2.5 -12t-2.5 -12t-6.5 -10t-10 -6.5t-12 -2q-13 0 -22 9t-9 21q0 9 4 16t11.5 11t15.5 4zM756 155q7 0 12.5 -2.5t9.5 -6.5t6.5 -10t2.5 -12q0 -13 -9 -22t-21.5 -9t-21.5 9t-9 22t9 22t21 9z
M696 276q13 0 22 -9t9 -21.5t-9 -21.5t-22 -9q-8 0 -15.5 4t-11.5 11t-4 15q0 13 9 22t22 9zM635 155q5 0 9 -1t7 -3t6 -5t5 -6.5t3 -7.5t1 -8q0 -13 -9 -22t-22 -9q-6 0 -11.5 2.5t-9.5 7t-6.5 10t-2.5 11.5q0 13 9 22t21 9zM575 276q13 0 22 -9t9 -22q0 -6 -2.5 -11.5
t-6.5 -10t-10 -6.5t-12 -2q-13 0 -22 9t-9 21q0 9 4 16t11.5 11t15.5 4zM514 155q7 0 12.5 -2.5t9.5 -6.5t6.5 -10t2.5 -12q0 -8 -4 -15t-11 -11.5t-16 -4.5q-12 0 -21 9t-9 22t9 22t21 9zM454 276q13 0 22 -9t9 -22q0 -8 -4.5 -15t-11.5 -11t-15 -4q-13 0 -22 9t-9 21.5
t9 21.5t22 9zM393 155q5 0 10 -1.5t8.5 -4.5t6.5 -6.5t4.5 -8.5t1.5 -10q0 -8 -4 -15t-11 -11.5t-16 -4.5q-12 0 -21 9t-9 22t9 22t21 9zM332 276q3 0 5.5 -0.5t4.5 -1.5l6 -2q2 -1 4 -3l4 -4l2 -4q2 -2 3 -4.5t1.5 -5.5t0.5 -6q0 -12 -9 -21t-22 -9t-22 9t-9 21.5t9 21.5
t22 9zM272.5 155q12.5 0 21.5 -9t9 -22t-9 -22t-21.5 -9t-21.5 9t-9 22t9 22t21.5 9zM211 276q13 0 22 -9t9 -22q0 -8 -4.5 -15t-11.5 -11t-15 -4q-13 0 -22 9t-9 21q0 7 2.5 12.5t6.5 9.5t10 6.5t12 2.5zM937 486h-212v-29q0 -10 -2 -19t-5.5 -15t-8 -10.5t-9.5 -7.5
t-10 -5t-9.5 -2.5t-8 -1t-5.5 -0.5h-2h-31q-19 0 -35 9.5t-24.5 23t-15 27t-8.5 22.5l-2 9h-104q-1 -3 -2.5 -9t-8 -21.5t-15 -27.5t-24 -22t-34.5 -11h-33q-26 0 -40.5 15.5t-15.5 30.5l-2 15v30h-180h-4q-2 0 -7.5 -1.5t-9.5 -4.5t-7.5 -9t-3.5 -15v-61v-3q0 -2 1 -7t4 -9
t9.5 -7.5t16.5 -3.5h31h815h2q1 0 4 0.5t6 1.5t6.5 3.5t6 5.5t4 8t1.5 11v31v3v8q0 7 -1 12.5t-2.5 12.5t-4.5 11.5t-8.5 8t-11.5 3.5z" />
    <glyph glyph-name="uniE627" unicode="&#xe627;" horiz-adv-x="1037" 
d="M666 198q31 56 55 118.5t32 96.5l9 34h-13h-109h-115v90h281v38h-281v135h-128v-135h-256v-38h256v-90h-218v-38h442q0 -5 -1 -6.5t-6 -6.5q0 -21 -10 -52t-19.5 -51.5t-27.5 -56.5q-48 19 -91.5 32.5t-78 22t-66.5 12.5t-55 5.5t-46 -0.5t-36.5 -4.5t-28.5 -7.5t-21 -8
t-15.5 -8t-9.5 -6q-134 -94 -88 -219q23 -65 76 -105q21 -16 31 -15q286 -63 480 167q6 -7 19 -7q31 -17 133.5 -66.5t189.5 -90.5l87 -41v192q-9 0 -21.5 2t-31.5 6.5t-36 9t-43.5 13t-45 14t-49.5 16.5l-48 16q-17 5 -50.5 16t-45.5 16zM499 140q-45 -58 -98.5 -92.5
t-96 -45t-87 -9t-65.5 7t-37 11.5q-28 7 -46.5 34t-22 59t12.5 64t50 48q57 18 114 20t110.5 -11t93 -28.5t85.5 -38.5z" />
    <glyph glyph-name="uniE628" unicode="&#xe628;" 
d="M757 372l-300 -215q14 -2 39 -5t103.5 -7.5t159.5 -3.5l-8 36l258 224q8 6 5 16t-13 11l-341 29l-134 315q-4 10 -14 10q-3 0 -6 -1t-5 -3.5t-3 -5.5l-134 -315l-341 -29q-3 0 -5.5 -1.5t-4.5 -4t-3 -5.5q-2 -4 -0.5 -8.5t5.5 -7.5l258 -224l-77 -334q-1 -3 -0.5 -6
t2 -5.5t4.5 -4.5q8 -6 17 -1l293 177l293 -177q4 -2 8 -2q5 0 9 3q3 2 4.5 4.5t2 5.5t-0.5 6l-61 264q12 6 25.5 14.5t21.5 14.5l8 6q-2 -1 -7 -3t-25 -7t-45 -9.5t-69 -9t-95.5 -6.5t-126 -0.5t-158.5 7.5l298 216q-1 2 -13.5 5.5t-109 12t-263.5 13.5q-3 1 2 2
q50 15 191 25q210 15 356 -16z" />
    <glyph glyph-name="uniE629" unicode="&#xe629;" 
d="M367 146l194 55l-139 138zM885 524l-138 138l-306 -304l139 -137zM845 13q0 -35 -25.5 -60.5t-61.5 -25.5h-520q-36 0 -61.5 25.5t-25.5 60.5v521q0 36 25.5 61.5t61.5 25.5h347l86 86h-462q-60 0 -102.5 -42t-42.5 -102v-578q0 -60 42.5 -102.5t102.5 -42.5h578
q60 0 102.5 42.5t42.5 102.5v462l-87 -87v-347zM950 640l-87 86q-11 10 -26.5 9.5t-27.5 -11.5l-41 -41l138 -138l42 41q11 12 11.5 27.5t-9.5 26.5z" />
    <glyph glyph-name="uniE62A" unicode="&#xe62a;" 
d="M510 557q-72 0 -123 -51t-51 -123t51 -123t123 -51q40 0 76 18q11 5 11 17q0 8 -6 13.5t-14 5.5q-3 0 -7 -1l-14 -6q-7 -3 -14.5 -4.5t-15.5 -2.5t-16 -1q-56 0 -95.5 39.5t-39.5 95.5t39.5 95.5t95.5 39.5q27 0 52.5 -10.5t43.5 -28.5t28.5 -43t10.5 -53q0 -6 -0.5 -13
t-2 -13t-2.5 -12l-1 -5q0 -8 6 -13.5t14 -5.5q5 0 9.5 2.5t7.5 7.5l1 3v1q7 24 7 48q0 72 -51 123t-123 51zM922 479h-67q-5 19 -12 38l-4 10q-3 6 -6 11.5t-5.5 11.5t-6.5 11l47 47q4 4 6 8.5t2 9.5t-2 10t-6 8l-97 97q-5 5 -11.5 6.5t-13 0t-11.5 -6.5l-47 -47
q-8 5 -17 10l-19 9l-9 3q-18 7 -37 12v67q0 10 -7.5 17.5t-17.5 7.5h-138q-7 0 -12.5 -3.5t-9 -9t-3.5 -12.5v-67q-19 -5 -37 -12l-11 -4q-17 -8 -34 -18l-47 47q-4 4 -8.5 5.5t-9.5 1.5t-10 -1.5t-8 -5.5l-97 -97q-4 -3 -6 -8t-2 -10q0 -10 8 -18l47 -47q-5 -8 -9.5 -17.5
t-9.5 -19.5l-3 -8q-2 -5 -3 -10l-4 -8l-2 -10q-2 -4 -3 -9h-67q-10 0 -17.5 -7.5t-7.5 -17.5v-137q0 -11 7.5 -18.5t17.5 -7.5h67q5 -19 13 -38l3 -10q8 -17 18 -34l-47 -47q-5 -5 -7 -11.5t0 -13t7 -11.5l97 -97q7 -7 18 -7t18 7l47 47q17 -10 34 -17l8 -4l3 -1
q18 -7 37 -12v-66q0 -6 2 -10.5t5.5 -8t8 -5.5t9.5 -2h138q10 0 17.5 7.5t7.5 18.5v66q19 5 38 13l10 3q2 2 4 3l6 2q2 1 4.5 2.5t5 2.5t5 2.5t5 2.5t4.5 3l47 -47q7 -7 18 -7t18 7l97 97q2 2 3.5 4.5t2.5 5t1.5 5.5t0 6t-1.5 5.5t-2.5 5t-3.5 4.5l-47 47q10 17 18 36l2 4
l2 5l12 37h67q5 0 9.5 2t8 5.5t5.5 8t2 10.5v137q0 10 -7.5 17.5t-17.5 7.5zM907 332h-83l-5 -20q-3 -11 -6.5 -22t-7.5 -22l-1 -4l-3 -4q-9 -21 -20 -40l-11 -17l59 -59l-76 -76l-59 59l-17 -11q-19 -11 -41 -21l-8 -3q-21 -9 -43 -14l-20 -4v-83h-107v83l-19 4
q-22 6 -46 15l-7 3q-20 8 -39 20l-18 11l-58 -59l-76 76l59 59l-11 17q-12 19 -21 41l-4 8q-8 21 -13 43l-5 20h-83v107h83l5 19q3 11 6.5 22t7.5 23l3 8l6 13q4 7 7.5 13.5t7.5 12.5l11 18l-59 58l76 76l58 -59l18 11q9 6 19.5 11t21.5 10l8 3q10 5 21 8l22 6l19 5v83h108
v-83l19 -5q22 -5 45 -14l8 -3q20 -9 39 -21l18 -11l58 59l76 -76l-59 -58l11 -18q3 -4 5.5 -9t5.5 -10.5t5.5 -10.5t4.5 -11l4 -8q8 -21 13 -43l5 -19h83v-107z" />
    <glyph glyph-name="uniE62B" unicode="&#xe62b;" 
d="M82 385q0 -117 57.5 -216t156.5 -156.5t216 -57.5t216 57.5t156.5 156.5t57.5 216q0 87 -34 167t-91.5 137.5t-137 91.5t-167.5 34q-165 0 -287 -110q-119 -107 -140 -265q-3 -28 -3 -55zM698 478q7 8 17.5 8.5t16.5 -5.5q5 -5 6 -11t-1 -12.5t-7 -11.5l-198 -200
q-8 -8 -20 -8q-3 0 -6.5 1t-7 2.5t-6.5 4.5l-198 200q-7 8 -8 18t6 17q3 3 7.5 4.5t9 1.5t9.5 -2.5t8 -6.5l186 -187z" />
    <glyph glyph-name="uniE62C" unicode="&#xe62c;" 
d="M512 -45q117 0 216 57.5t156.5 156.5t57.5 216q0 70 -21.5 135.5t-61.5 118.5t-92.5 92.5t-118.5 61.5t-136 22q-117 0 -216 -57.5t-156.5 -156.5t-57.5 -216q0 -178 126 -304t304 -126zM512 480l-186 -188q-7 -8 -17 -8.5t-17 6t-6 16.5t8 18l198 200q9 9 20 8h4
q3 0 5 -1l4 -2l4 -2q2 -1 3 -3l198 -200q8 -8 8.5 -18t-6.5 -17q-3 -3 -7.5 -4.5t-9 -1t-9 2.5t-8.5 6z" />
    <glyph glyph-name="uniE62D" unicode="&#xe62d;" 
d="M82 385q0 -117 57.5 -216t156.5 -156.5t216 -57.5t216 57.5t156.5 156.5t57.5 216q0 70 -21.5 135.5t-61.5 118.5t-93 93t-118.5 61.5t-135.5 21.5q-117 0 -216 -57.5t-156.5 -156.5t-57.5 -216zM607 385l-188 186q-5 5 -7.5 11.5t-1 12.5t5.5 10q7 7 17 6.5t18 -8.5
l200 -198q9 -8 8 -20q1 -12 -8 -20l-200 -198q-8 -7 -18 -8t-17 6q-4 4 -5.5 10.5t1 12.5t7.5 11z" />
    <glyph glyph-name="uniE62E" unicode="&#xe62e;" 
d="M512 815q-117 0 -216 -57.5t-156.5 -156.5t-57.5 -216t57.5 -216t156.5 -156.5t216 -57.5t216 57.5t156.5 156.5t57.5 216q0 165 -110 288q-107 118 -265 139q-28 3 -55 3zM606 199q7 -7 8 -17.5t-6 -17t-17 -5.5t-18 8l-200 198q-8 8 -8 20t8 20l200 198q8 8 18 8.5
t17 -6t6 -17t-8 -17.5l-188 -186z" />
    <glyph glyph-name="uniE62F" unicode="&#xe62f;" 
d="M925 383q0 83 -32.5 159t-87.5 131t-131 88t-160 33q-111 0 -206 -55t-150 -150t-55 -206.5t55 -206t150 -149.5t206 -55q137 0 248 84q4 5 4 12q0 5 -2.5 9t-6.5 6.5t-9 2.5q-8 0 -13 -6q-99 -72 -220 -72q-101 0 -187 49.5t-135.5 135.5t-49.5 187q0 76 29.5 144.5
t79 118.5t118.5 79.5t145 29.5q101 0 186.5 -50t135.5 -135.5t50 -186.5q0 -94 -42 -174q-2 -4 -2 -5q0 -8 5.5 -13.5t13.5 -5.5q12 0 17 12q22 44 34 91.5t12 97.5zM629 404l-169 167q-5 5 -11 7t-12 1t-10 -6q-7 -6 -6.5 -15.5t8.5 -16.5l158 -156l-162 -160q-7 -7 -8 -17
t5.5 -16t16.5 -5.5t17 7.5l173 171q8 8 8 19q0 12 -8 20z" />
    <glyph glyph-name="uniE630" unicode="&#xe630;" 
d="M929 387q0 113 -55 208t-150.5 150.5t-208.5 55.5q-84 0 -160.5 -32.5t-132 -88t-88.5 -132.5t-33 -161t33 -161t88.5 -132.5t132 -88t160.5 -32.5q138 0 250 84q4 6 4 12q0 4 -1.5 7.5t-4 6t-5.5 4t-7 1.5q-3 0 -5.5 -0.5t-4.5 -2t-3 -3.5h-1q-47 -35 -103.5 -54
t-117.5 -19q-102 0 -188.5 50t-137 136.5t-50.5 188.5t50.5 188.5t137 136.5t188.5 50t188 -50t136.5 -136.5t50.5 -188.5q0 -47 -11 -91t-32 -84q-1 -4 -1 -6q0 -7 5.5 -12.5t12.5 -5.5q4 0 7.5 1.5t6 4.5t4.5 6q22 44 34 92t12 98zM403 369l175 -172q7 -7 17 -8t16 6
q5 4 6 10t-1 12t-7 11l-163 161l159 157q8 8 8.5 17.5t-6.5 15.5q-4 5 -10 6t-12 -1t-11 -7l-171 -168q-8 -9 -8 -20q0 -5 2 -10t6 -10z" />
    <glyph glyph-name="uniE631" unicode="&#xe631;" 
d="M923 383q0 66 -20.5 128.5t-58.5 113t-88 88t-112.5 58t-129.5 20.5q-55 0 -108 -14.5t-98 -41t-82.5 -64t-64 -82.5t-41.5 -98t-15 -108q0 -159 108 -277q105 -114 258 -130q22 -2 43 -2q68 0 131 21.5t115 61.5q5 6 5 12q0 8 -5.5 13t-12.5 5q-4 0 -7.5 -1.5t-5.5 -3.5
q-99 -72 -219 -72q-61 0 -117.5 18.5t-102 52.5t-79.5 79.5t-53 102t-19 117.5q0 100 50 185.5t135 135t185.5 49.5t186 -49.5t135 -135t49.5 -185.5q0 -47 -10.5 -90.5t-31.5 -82.5v-1l-1 -5q0 -5 2.5 -9t6.5 -6.5t9 -2.5q12 0 17 12q46 89 46 188zM525 514q-11 0 -19 -8
l-167 -169q-4 -5 -6 -11t-1 -12t5 -10q6 -6 16 -5.5t17 7.5l155 158l159 -161q5 -5 11 -7t12 -1t10 5q6 7 5.5 16.5t-7.5 16.5l-171 173q-8 8 -19 8z" />
    <glyph glyph-name="uniE632" unicode="&#xe632;" 
d="M450 283q44 -26 95.5 -16t83.5 52q36 47 29 106t-52.5 95.5t-103.5 29.5t-94 -53q-27 -36 -29.5 -81t19.5 -82q-32 -30 -59 -68t-54 -94t-41.5 -132t-12.5 -163q1 -15 11.5 -25.5t25.5 -10.5h1q15 0 25.5 11.5t9.5 26.5q-2 78 11 146t37 117t47.5 82t50.5 59zM519 759
q-70 0 -134 -28t-110 -75t-73 -112t-27 -136q0 -29 4.5 -57t12.5 -55q5 -15 18.5 -21.5t28 -2t21 18.5t1.5 28q-14 43 -14 89q0 114 79.5 195.5t192.5 81.5q44 0 85 -14t74.5 -40t58.5 -60t39 -76t14 -87q0 -115 -79.5 -196t-191.5 -81q-15 0 -29.5 1.5t-28.5 4.5
q-15 3 -27.5 -5t-16 -23t5 -28t22.5 -17q36 -8 74 -8q93 0 172 47.5t125.5 128t46.5 176.5q0 142 -98 244q-96 101 -232 107h-14z" />
    <glyph glyph-name="uniE633" unicode="&#xe633;" 
d="M464 -163q-92 0 -175.5 35.5t-143.5 96t-96 144t-36 175.5t36 175.5t96 144t143.5 96t175.5 35.5t175.5 -35.5t144 -96t96 -144t35.5 -175.5t-35.5 -175.5t-96 -144t-144 -96t-175.5 -35.5zM464 125q-65 0 -119 41q-37 -8 -61.5 -34.5t-24.5 -61.5v-65q0 -14 4 -26.5
t11.5 -23.5t17.5 -20t22.5 -15.5t27 -10t29.5 -3.5h186q47 0 79.5 29t32.5 70v65q0 35 -24.5 61.5t-61.5 34.5q-26 -20 -56 -30.5t-63 -10.5zM624 344q0 48 -21.5 88.5t-58 64t-80 23.5t-80.5 -23.5t-58 -64t-21 -88.5q0 -35 12.5 -67.5t34 -56t51 -37.5t61.5 -14
q66 0 113 51.5t47 123.5zM464 689q-109 0 -201 -53.5t-146 -146t-54 -201.5q0 -94 41 -176t112 -138q-2 13 -2 20v87q0 43 25.5 77t66.5 47q-47 61 -47 139q0 91 60 155.5t145 64.5t145 -64.5t60 -155.5q0 -78 -47 -139q41 -13 67 -47t26 -77v-87q0 -7 -2 -20
q71 56 111.5 138t40.5 176q0 55 -14.5 106.5t-40 95.5t-62.5 81t-81 63t-96 40.5t-107 14.5z" />
    <glyph glyph-name="uniE634" unicode="&#xe634;" 
d="M623 311q32 26 50.5 62.5t18.5 79.5q0 74 -53 126.5t-127 52.5t-127 -52.5t-53 -126.5q0 -43 18.5 -79.5t50.5 -62.5q-33 -13 -62 -33.5t-52 -47t-39.5 -57.5t-25.5 -66.5t-9 -72.5v-60q0 -13 8.5 -21.5t21.5 -8.5h538q13 0 21.5 8.5t8.5 21.5v60q0 93 -52 168.5
t-136 108.5zM802 322q19 21 29 47t10 54q0 62 -43.5 105.5t-105.5 43.5h-4h-4q20 -29 30 -62h-1q5 -13 9.5 -33.5t-4.5 -72.5t-45 -90q8 -4 13.5 -6.5t25 -15t33.5 -25.5t33.5 -37t32 -50.5t21.5 -65t9 -80.5v0h60q13 0 21.5 8.5t8.5 20.5v47q0 34 -9 66t-26 59t-41 49.5
t-53 37.5zM351 314q-23 24 -35.5 53t-14 53t0 45t5.5 33l3 12q4 11 8 21.5t9.5 20.5t12.5 20h-4h-4q-62 0 -105.5 -43.5t-43.5 -105.5q0 -28 10 -54t29 -47q-59 -30 -94 -87t-35 -125v-47q0 -12 8.5 -20.5t21.5 -8.5h60q0 42 9 80.5t21.5 65t32 50.5t33.5 37t33.5 25.5
t25 15t13.5 6.5z" />
    <glyph glyph-name="uniE635" unicode="&#xe635;" 
d="M753 618q21 -15 40 -32t35 -36q4 -5 7.5 -9t6.5 -9l8 -8l6 -10l6 -8l6 -10t6 -9.5t5.5 -9.5t5.5 -10q12 -22 20.5 -45.5t15.5 -47.5q12 -50 12 -100q0 -22 -2 -43.5t-6.5 -42t-10.5 -40t-15 -38.5q-33 -77 -90 -134t-133 -90q-20 -9 -39.5 -15t-40 -10t-42 -6.5
t-42.5 -2.5q-87 0 -163.5 33.5t-134 90.5t-90.5 134q-16 38 -24.5 79t-8.5 85q0 50 12 97.5t33.5 91t53.5 81t71 67.5q6 4 11 6.5t11 4t11 1.5h12q24 -4 39 -24q8 -10 10.5 -21t1 -23t-7.5 -22t-16 -18q-59 -43 -90.5 -106t-31.5 -135q0 -31 5.5 -60.5t17.5 -56.5
q24 -55 64.5 -96t95.5 -65q19 -8 38 -13.5t39 -8t41 -2.5q62 0 117 24t95.5 65t64.5 96q12 27 18 56.5t6 60.5q0 24 -3.5 47.5t-11 46.5t-19.5 44q-33 66 -94 108q-21 14 -25 39q-1 6 -1 11.5t1 11.5t3.5 11.5t5.5 10.5q15 19 39 24q8 1 16 0.5t15 -3t14 -7.5v0zM512 271
q-25 0 -42.5 17.5t-17.5 41.5v357q0 25 17.5 43t42.5 18t42.5 -18t17.5 -43v-357q0 -24 -17.5 -41.5t-42.5 -17.5v0zM512 271z" />
    <glyph glyph-name="uniE636" unicode="&#xe636;" 
d="M934 470l-301 -301l-220 -82l83 219l301 301q15 15 35 20.5t40 0t35 -20.5l27 -27q23 -23 23 -55t-23 -55zM480 154l132 49l7 7l-82 82l-8 -7zM564 320l83 -83l205 206l-82 82zM907 553l-27 27q-12 12 -28 12t-27 -12l-28 -27l82 -83l28 28q8 7 10.5 17t0 20t-10.5 18z
M200 67v39h191l-15 -39h-176zM420 184h-220v38h235zM200 455h194v-38h-194v38zM394 300h-194v39h194v-39zM627 106v-39h-188l104 39h84zM530 675v-142q0 -16 11.5 -27.5t27.5 -11.5h60l-39 -39h-21q-32 0 -55 23t-23 55v175h-349q-16 0 -27.5 -11.5t-11.5 -27.5v-738
q0 -16 11.5 -27t27.5 -11h543q11 0 20 5t14 14t5 19v274l39 39v-313q0 -32 -22.5 -54.5t-55.5 -22.5h-543q-11 0 -21 2.5t-18.5 7.5t-15.5 12.5t-12 16t-8 18.5t-3 20v738q0 21 10.5 39t28.5 28t39 10h291h10h21h54l175 -188l-27 -27z" />
    <glyph glyph-name="uniE637" unicode="&#xe637;" 
d="M508 808q-113 0 -209.5 -56.5t-152.5 -153.5t-56 -212q0 -86 33 -164t89 -134.5t133.5 -90t162.5 -33.5q114 0 210 56.5t152.5 154t56.5 211.5q0 43 -9 85t-24.5 79.5t-38.5 71.5t-51 62.5t-62 51.5t-71 39t-78.5 24.5t-84.5 8.5zM508 -4q-127 0 -230 77q19 7 53 20
q77 27 89 35q32 20 23 112v6l-16 14q-4 37 -13 51q-6 11 -15 35t-15 42l-2 5l-4 3q-1 1 -2.5 3t-4 7t-2.5 10t2.5 10t4.5 6l2 3l8 6l-2 10q-12 64 -12 94q0 34 14.5 58.5t38.5 35t46 15t46 4.5q25 0 45.5 -5t40.5 -16.5t31.5 -35t11.5 -56.5q0 -11 -0.5 -25t-1.5 -25.5
t-2 -22.5t-1.5 -16t-0.5 -6l-1 -9l7 -6q9 -8 10 -19q0 -11 -10 -20l-4 -3l-1 -5q-2 -3 -5.5 -13.5t-11.5 -31t-14 -33.5q-8 -14 -12 -50l-16 -14l-1 -6q-1 -7 -1 -14v-20q0 -12 1 -23t3.5 -22t7.5 -20t12 -13q13 -8 91 -32l52 -16q-106 -84 -239 -84zM775 104q-16 6 -71 23
q-73 22 -82 28q-6 4 -8.5 26.5t-0.5 49.5l15 14l1 6q4 34 9 44q6 12 13.5 30t11 28.5t7.5 20.5q3 3 5.5 6.5t5.5 9t5 12t2 14.5q0 12 -4.5 21.5t-10.5 16.5q5 56 5 91q0 69 -42 107t-119 38q-84 0 -130.5 -38t-46.5 -107q0 -36 11 -92q-6 -7 -10.5 -16t-4.5 -21
q0 -14 6 -24.5t13 -17.5q19 -58 32 -79q5 -10 8 -44l1 -6l16 -14q1 -19 0.5 -34.5t-3.5 -27t-6 -14.5q-4 -2 -12 -5.5t-22 -8.5t-22.5 -8.5t-26.5 -9.5q-29 -11 -44.5 -16.5t-25.5 -10.5q-60 55 -94 130.5t-34 159.5q0 106 52 196t141 142t193.5 52t193.5 -52t140.5 -142
t51.5 -196q0 -82 -31.5 -155t-87.5 -127z" />
    <glyph glyph-name="uniE638" unicode="&#xe638;" 
d="M382 584h-221q-21 0 -35 -14.5t-14 -35.5v-535q0 -20 14 -34.5t35 -14.5h662q20 0 34.5 14.5t14.5 34.5v201h-51v-199h-658v531h219v52zM664 659v-144q-132 -10 -231.5 -94.5t-128.5 -209.5q67 55 159.5 91.5t200.5 48.5v-186l248 247z" />
    <glyph glyph-name="uniE639" unicode="&#xe639;" 
d="M850 697h-137v-59q0 -8 -5.5 -13t-13.5 -5h-41q-7 0 -12.5 5t-5.5 13v59h-213v-59q0 -8 -5.5 -13t-13.5 -5h-41q-7 0 -12.5 5t-5.5 13v59h-147q-4 0 -7.5 -2t-5 -5t-1.5 -7v-653q0 -6 4 -10t10 -4h653q6 0 10 4t4 10v653q0 6 -4 10t-10 4zM731 155h-415v47h415v-47z
M731 320h-415v46h415v-46zM731 484h-415v47h415v-47zM703 645q0 -5 -4 -9t-10 -4h-30q-4 0 -7 1.5t-5 5t-2 6.5v134q0 6 4 10t10 4h30q2 0 4 -0.5t4 -2t3 -3t2 -3.5t1 -5v-134zM412 645q0 -2 -1 -5t-3 -4.5t-4.5 -2.5t-5.5 -1h-30q-6 0 -10 4t-4 9v134q0 6 4 10t10 4h30
q2 0 4 -0.5t4 -2t3 -3t2 -3.5t1 -5v-134z" />
    <glyph glyph-name="uniE63A" unicode="&#xe63a;" 
d="M629 191q-20 3 -34 14t-19 23.5t-7.5 25.5t-2.5 21v8q-1 0 -1 3.5t1 8.5l1 5q11 6 21.5 17.5t16.5 23.5t10 22.5t6 17.5l2 7v83q-1 3 -2.5 9t-8 21.5t-15 27t-24 21t-34.5 9.5l-57 28q-21 0 -37 -12t-24 -29t-13 -34t-6 -29l-1 -12v-1v-4v-5v-7v-8v-11v-12v-13v-15
q1 -45 54 -97l1 -17v-8q1 -8 -0.5 -20t-6 -25t-18 -23.5t-33.5 -13.5q-25 -3 -51 -12.5t-45 -21t-31.5 -20t-19.5 -14.5q-18 -24 -18 -106h558q-7 93 -21 106q-7 7 -18 15t-29.5 19.5t-43 21t-50.5 12.5zM938 91l-4 3q-4 4 -5.5 6t-6.5 6t-9 6.5t-9.5 6.5t-11.5 6.5t-13 5.5
t-14.5 5t-16.5 3q-14 2 -23.5 10t-12.5 17t-5 18.5t-1 15t0 5.5v12q8 5 15 13t11.5 16t7.5 15t4 12l1 5v74q-1 3 -2 7t-5.5 15t-11 19t-17.5 14.5t-24 6.5l-40 15q-15 0 -27 -8t-18.5 -19.5t-11 -22.5t-5.5 -19l-2 -8q1 -38 0 -70q0 -14 10 -31t20 -27l10 -10l1 -12l6 -17
q14 -9 25 -16.5t17.5 -12.5t11.5 -10l8 -8q2 -2 4.5 -5.5t3.5 -4.5q2 -1 4.5 -8.5t5 -17t4.5 -21t3.5 -23t3 -20.5t1.5 -14l1 -6l138 1q-12 63 -21 72zM302 202q-1 0 -1 3t1 6v3l4 4q3 3 10 11t12.5 15.5t9.5 18t4 19.5v70q0 4 -1.5 9.5t-6 19.5t-11 25t-18.5 19.5t-26 8.5
l-41 -20q-13 0 -24 -6t-18 -15.5t-11.5 -18.5t-6.5 -15l-2 -7v-74q1 -2 1.5 -5t4.5 -11.5t8 -16t11.5 -15.5t15.5 -13q0 -1 0.5 -3t0.5 -6v-8v-2q-1 0 -0.5 -2.5t0 -7.5t-1 -10.5t-3.5 -11.5t-7.5 -11.5t-12.5 -9.5t-18 -6q-8 -1 -16 -3t-15 -5t-13 -5.5t-11.5 -6.5
t-9.5 -6.5t-8.5 -6.5t-6.5 -6l-5 -6q-4 -3 -5 -3q-4 -4 -9.5 -22t-8.5 -34l-3 -16l138 -1q0 3 -0.5 8t0 19.5t1.5 27t4 26.5t8 22q19 23 81 61q3 6 4.5 11.5t1.5 6.5v2z" />
    <glyph glyph-name="uniE63B" unicode="&#xe63b;" 
d="M364 423q-13 -12 -18 -28t0 -32.5t19 -27.5l309 -271q3 -3 7 -4.5t8 -1t8 2.5t7 5q6 7 5.5 15.5t-7.5 14.5l-309 271q-14 12 -1 24l310 281q5 4 6.5 9.5t0.5 11t-5 10t-9.5 6t-11 0.5t-9.5 -5z" />
    <glyph glyph-name="uniE63C" unicode="&#xe63c;" 
d="M510 509q12 14 25 0l270 -310q6 -6 15 -7t15.5 5t7 15t-5.5 15l-270 310q-18 20 -44 20.5t-45 -20.5l-280 -309q-3 -4 -4.5 -8t-1.5 -8t2 -8t5 -6q7 -6 15.5 -6t14.5 7z" />
    <glyph glyph-name="uniE63D" unicode="&#xe63d;" 
d="M478 252q19 -20 45 -20t44 21l270 309q4 4 5 9.5t-0.5 11t-6.5 9.5q-6 6 -15 5.5t-15 -7.5l-270 -309q-6 -6 -13 -6.5t-12 5.5l-281 310q-6 7 -14.5 7.5t-15.5 -5.5q-4 -4 -6 -9.5t-0.5 -11t5.5 -9.5z" />
    <glyph glyph-name="uniE63E" unicode="&#xe63e;" 
d="M642 391q14 -12 0 -24l-309 -271q-7 -6 -7.5 -14.5t5.5 -15.5q3 -4 8.5 -6t11 -1t10.5 5l309 271q13 11 18 27.5t0.5 32.5t-17.5 28l-310 281q-7 6 -15.5 5.5t-14.5 -7.5q-4 -4 -5 -9.5t0.5 -11t5.5 -9.5z" />
    <glyph glyph-name="uniE63F" unicode="&#xe63f;" 
d="M1002 -96q-2 5 -3 7l-4 6q-3 4 -10 11q-10 12 -31 34q-16 16 -35.5 36t-60.5 62q-69 70 -95 97q-20 21 -30 32l-7 8l2 -1q0 -1 1 -4q1 -6 0 -9t-7 -16q62 60 95.5 139.5t33.5 167.5q0 114 -55.5 211.5t-151 154t-208.5 56.5q-160 0 -278 -109q-116 -107 -134 -264
q-3 -25 -3 -49q0 -164 109 -285q104 -117 258 -135q25 -3 48 -3h4h4q2 0 4 0.5t4 0.5q5 0 15 1t14.5 1.5t8.5 0.5q7 0 18.5 2.5t28.5 7.5l8 2q13 3 26 7q4 2 6.5 2.5t4.5 1.5q10 3 15 12.5t2 19.5t-12.5 15t-19.5 2q-1 -1 -2.5 -1t-3.5 -1t-5 -2q-13 -4 -24 -7l-8 -2l-8 -2
q-4 -1 -7.5 -2t-6.5 -1.5t-5.5 -1t-4 -1t-2.5 -0.5q-9 0 -28 -2q-9 -1 -13 -1q-7 -1 -13 -1q-99 0 -183 50t-132.5 135.5t-48.5 186.5q0 75 28.5 144t77.5 118.5t116.5 79t141.5 29.5q99 0 183 -50t133 -135.5t49 -185.5q0 -160 -114 -270q-7 -13 -8 -16.5t1 -9.5q2 -4 3 -7
q1 -1 2 -2.5t2 -2.5q1 -3 3 -6l6 -5q5 -6 13 -14.5t18 -19.5q16 -16 36 -37l60 -61q69 -70 95 -97q20 -21 30 -32q2 -2 3 -3.5t2 -2.5l2 -2q-1 2 -2 6q-2 6 -1 9t9 16q-8 -7 -9 -17.5t6 -18.5q4 -5 10.5 -7.5t13 -1t11.5 5.5q6 10 7.5 13t2 6.5t-0.5 6.5z" />
    <glyph glyph-name="uniE640" unicode="&#xe640;" 
d="M753 526l-81 40v80l-94 -6l-66 47l-67 -47l-94 6v-80l-80 -38l40 -82l-40 -81l80 -40v-80l94 7l67 -47l66 47l94 -7v80l81 40l-41 81zM686 388l-58 -29v-59l-68 5l-48 -34l-48 34l-69 -5v59l-58 29l29 58l-29 59l58 28v58l69 -5l48 34l48 -34l68 5v-58l58 -29l-29 -58z
M444 235l-109 -8v52l-201 -245l159 29l3 -162l227 277l-14 11zM689 275v-52l-110 8l-18 -13l-58 -44l215 -286l10 161l158 -35zM627 404l-39 -19v-39l-45 4l-31 -23l-32 23l-45 -4v39l-38 19l19 38l-19 39l38 19v38l45 -3l32 22l31 -22l45 3v-38l39 -19l-20 -39z" />
    <glyph glyph-name="uniE641" unicode="&#xe641;" 
d="M1024 487v72q0 17 -8.5 32t-23.5 23.5t-32 8.5h-512v58q0 27 -18.5 45.5t-45.5 18.5h-320q-17 0 -32 -8.5t-23.5 -23.5t-8.5 -32v-194h1024zM0 439v-520q0 -17 8.5 -32t23.5 -23.5t32 -8.5h896q27 0 45.5 18.5t18.5 45.5v520h-1024z" />
    <glyph glyph-name="uniE642" unicode="&#xe642;" 
d="M409.5 352.5q-128.5 -5.5 -217 -67.5t-84.5 -144q2 -53 45.5 -97t116 -67t157.5 -19q128 5 216.5 67t84.5 143q-4 82 -97 136t-221.5 48.5zM367 245q-68 -12 -110 -54t-34 -91q8 -48 62 -73.5t122 -13.5q68 11 110 53.5t34 90.5q-4 24 -20.5 43.5t-41.5 30.5t-56.5 15.5
t-65.5 -1.5zM35 91q-4 10 -9 28.5t-3.5 72.5t21 103.5t80 112.5t156.5 110q3 2 8 5t20 10.5t29.5 13.5t33.5 12t35.5 7.5t32.5 -3t26.5 -15.5t15.5 -33t1 -53q13 -10 105 12q46 12 89 -3t65.5 -53.5t9.5 -88.5q5 -3 13 -7.5t29 -20.5t37 -33.5t28.5 -44.5t11.5 -55
t-21.5 -64t-62.5 -72l-4 -7q-2 -5 -13 -19t-26 -26.5t-42.5 -28t-61 -27t-84 -19.5t-109.5 -8q-103 -1 -179 16.5t-121 50t-68.5 61t-42.5 66.5zM676 566v-33q4 1 10.5 2.5t25 2.5t34 0t33.5 -7.5t28 -18.5q15 -20 22.5 -51t6.5 -52l-1 -22h35q0 5 1 12t0.5 27.5t-4.5 39
t-15 40.5t-28 37.5t-38.5 23t-40 8t-34.5 -1t-25 -4.5zM689 689v-57q6 2 17 3t40.5 2t55.5 -2.5t55 -15.5t45.5 -32.5t28 -48.5t15.5 -53.5t6 -48t1 -35.5l-1 -14h54q0 3 1 6.5t2.5 16.5t2 25.5t0 31.5t-2.5 36.5t-7.5 38t-13.5 38.5t-20.5 36.5t-29.5 33.5q-21 18 -46 30
t-48.5 17t-46.5 6t-42.5 -1.5t-34 -5t-22.5 -4.5zM333 111zM277 111q0 23 16.5 39.5t39.5 16.5q15 0 28 -7.5t20 -20.5t7 -28t-7 -28t-20 -20.5t-28 -7.5t-28 7.5t-20.5 20.5t-7.5 28zM418 166.5q0 -8.5 -6.5 -15t-15.5 -6.5t-15.5 6.5t-6.5 15t6.5 14.5t15.5 6t15.5 -6
t6.5 -14.5z" />
    <glyph glyph-name="uniE643" unicode="&#xe643;" 
d="M916 -44h-812q-7 0 -13 2t-11 5.5t-9 8.5t-6 11.5t-2 12.5v617q0 17 12 29t29 12h812q17 0 29 -12t12 -29v-617q0 -17 -12 -28.5t-29 -11.5zM104 625q-5 0 -9 -3.5t-4 -8.5v-617q0 -3 2 -6t5 -4.5t6 -1.5h812q5 0 9 3.5t4 8.5v617q0 5 -4 8.5t-9 3.5h-812zM510 229
l-441 346l17 22l424 -332l424 332l18 -22zM96 -33l-21 20l289 289l21 -20zM663 277l290 -290l-20 -20l-290 290z" />
    <glyph glyph-name="uniE644" unicode="&#xe644;" 
d="M1004 -66l-134 -127q-14 -14 -35 -14q-7 0 -13.5 2t-12 5t-9.5 7l-67 64q-15 14 -15 34q0 6 2 12t5 11.5t7.5 10t10 7.5t12 4.5t13.5 1.5q4 0 8 -0.5t8 -1.5t7.5 -3t6.5 -4t6 -5l31 -30l98 94q15 14 35.5 14t35.5 -14t15 -33.5t-15 -34.5zM834 -25q-28 25 -66 25
q-27 0 -50 -12.5t-36.5 -34.5t-13.5 -48q0 -40 30 -68h-1l46 -44h-693q-21 0 -35.5 14t-14.5 34v828q0 19 14.5 33t35.5 14h84v-47q0 -40 29 -68t70.5 -28t71 28t29.5 68v47h50v-47q0 -26 13.5 -48t36.5 -35t50 -13q42 0 71 28t29 68v47h51v-47q0 -20 7.5 -37.5t21 -30.5
t32 -20.5t39 -7.5t39 7.5t32 20.5t21.5 30.5t8 37.5v47h83q21 0 36 -14t15 -33v-605q-42 0 -71 -28zM134 -8q0 -11 5.5 -20t15 -14.5t20.5 -5.5h318q17 0 29 12t12 28v0v0q0 17 -12 28.5t-29 11.5h-318q-17 0 -29 -11.5t-12 -28.5zM785 446h-601q-21 0 -35.5 -14t-14.5 -34
t14.5 -34t35.5 -14h601q21 0 35.5 14t14.5 34q0 31 -30 44q-10 4 -20 4zM785 239h-301h-83h-217q-14 0 -25.5 -6.5t-18 -17.5t-6.5 -24q0 -20 14.5 -34t35.5 -14h217h83h301q21 0 35.5 14t14.5 34t-14.5 34t-35.5 14zM735 621q-21 0 -35.5 14t-14.5 34v95q0 4 0.5 8.5t2 8.5
t4 7.5t5 6.5t6 5.5t7 4.5t7.5 3.5t8.5 2.5t9.5 1q13 0 25 -6.5t18.5 -17.5t6.5 -24v-95q0 -13 -6.5 -24t-18.5 -17.5t-25 -6.5zM484.5 621q-20.5 0 -35.5 14t-15 34v95q0 5 1 9.5t3 9t4.5 8.5t6 7t7.5 5.5t8.5 4.5t9.5 3t10 1q14 0 25.5 -6.5t18 -17.5t6.5 -24v-95
q0 -20 -14.5 -34t-35 -14zM234 621q-21 0 -35.5 14t-14.5 34v95q0 13 6.5 24t18 17.5t25.5 6.5q21 0 35.5 -14t14.5 -34v-95q0 -10 -4 -19t-10.5 -15.5t-16 -10t-19.5 -3.5z" />
    <glyph glyph-name="uniE645" unicode="&#xe645;" 
d="M948 -19l-207 207q91 108 91 248q0 159 -112.5 271.5t-271.5 112.5t-271.5 -112.5t-112.5 -271.5t112.5 -271.5t271.5 -112.5q140 0 248 91l207 -207q7 -7 15.5 -10t17.5 -1t15 8q22 23 -3 48zM448 116q-133 0 -226.5 93.5t-93.5 226.5t93.5 226.5t226.5 93.5
t226.5 -93.5t93.5 -226.5t-93.5 -226.5t-226.5 -93.5z" />
    <glyph glyph-name="uniE646" unicode="&#xe646;" 
d="M873 140zM810 682q-81 81 -189.5 109.5t-217 0t-189.5 -109.5t-109.5 -189.5t0 -217t109.5 -189.5q61 -60 139.5 -91.5t158.5 -31.5t158.5 31.5t139.5 91.5q48 49 78.5 109.5t39.5 124.5t0 128t-39.5 124.5t-78.5 109.5zM767 129q-69 -69 -162 -94t-186 0t-162 94
t-94 162t0 186t94 162t162 94t186 0t162 -94t94 -162t0 -186t-94 -162zM602 557q-12 0 -23.5 -3t-23 -9t-22.5 -14.5t-21 -20.5q-20 23 -43 35t-47 12q-38 0 -69 -19.5t-49.5 -53.5t-18.5 -74q0 -6 1 -13t2.5 -14t4 -14.5t5.5 -14.5t6.5 -14t7.5 -13.5t8.5 -12.5t9.5 -11.5
t10 -10.5q15 -19 50 -51.5t72 -61t50 -28.5q19 0 81.5 53.5t89.5 86.5q24 22 40 56t16 63q0 40 -18.5 74t-49.5 53.5t-69 19.5zM645 333l-4 -4l-3 -3q-17 -22 -58.5 -59t-67.5 -54q-16 11 -42.5 33t-50.5 45t-35 37l-3 3l-3 3q-10 9 -18.5 23.5t-13.5 28.5t-5 24
q0 37 23.5 64t57.5 27q23 0 47 -28l43 -49l43 49q24 28 47 28q17 0 31.5 -7.5t25.5 -19.5t17.5 -29t6.5 -35q0 -16 -11 -39.5t-27 -37.5z" />
    <glyph glyph-name="uniE647" unicode="&#xe647;" 
d="M512 563zM512 13l-226 226v64l203 -204v464h46v-464l203 204v-64zM512 -210q-81 0 -157 25.5t-137 71.5t-107 107t-71.5 137t-25.5 157t25.5 157t71.5 137t107 107t137 71.5t157 25.5q101 0 193 -39.5t159 -106.5t106.5 -159t39.5 -193t-39.5 -193t-106.5 -159
t-159 -106.5t-193 -39.5zM512 757q-95 0 -182 -37t-150 -100t-100 -150t-37 -182t37 -182t100 -150t150 -100t182 -37t182 37t150 100t100 150t37 182q0 43 -7.5 84.5t-21.5 79t-34.5 73t-46.5 66t-56.5 56.5t-66 46.5t-73 34.5t-79 21.5t-84.5 7.5z" />
    <glyph glyph-name="uniE648" unicode="&#xe648;" 
d="M720 614h-385q-24 0 -41 -17t-17 -40v-327q0 -24 17 -41t41 -17h385q24 0 41 17t17 41v327q0 11 -4.5 22t-12.5 18.5t-18.5 12t-22.5 4.5zM456 571h144v-91h-1q-35 9 -69 -13q-28 25 -58 22q-3 -1 -5.5 -1.5t-5.5 -1t-5 -1.5v86zM734 230q0 -4 -2 -7.5t-5 -5t-7 -1.5
h-385q-4 0 -7 1.5t-5 5t-2 7.5v327q0 5 4 9.5t10 4.5h77v-134q0 -17 16 -21q3 -1 6 -1q13 0 19 11q10 18 24 19q15 2 34 -21q1 -2 3 -3l4 -2q2 -1 4 -1.5t4 -0.5q4 -1 8.5 0.5t7.5 4.5q20 18 39 17q14 -1 22 -9q8 -13 22 -10q8 1 13 7t5 14v130h77q6 0 10 -4.5t4 -9.5v-327z
M608 300q-6 0 -11.5 -3t-9 -9t-3.5 -12q0 -10 7 -17t17 -7q4 0 7.5 1t6.5 3.5t5.5 5.5t3.5 6.5t1 7.5q0 3 -1 6t-2.5 6t-3.5 5t-4.5 3.5t-6 2.5t-6.5 1zM676 300q-10 0 -17 -7t-7 -17q0 -5 2 -9.5t5 -7.5t7.5 -5t9.5 -2q10 0 17 7t7 17q0 5 -2 9.5t-5 7.5t-7.5 5t-9.5 2z
M528 831q-117 0 -216 -57.5t-157 -157t-58 -216t58 -215.5t157 -157t216 -58q87 0 166.5 34.5t137.5 92t92 137t34 167.5q0 58 -15.5 114t-43.5 103t-67.5 87t-87 67.5t-103 43t-113.5 15.5zM527.5 26q-101.5 0 -188 50t-136.5 136.5t-50 188.5q0 76 29.5 145.5t80 119.5
t119.5 80t146 30q101 0 187.5 -50.5t137 -137t50.5 -188t-50.5 -188t-137 -136.5t-188 -50z" />
    <glyph glyph-name="uniE649" unicode="&#xe649;" 
d="M512 763q61 0 119 -16.5t107 -46t90 -71.5t70 -92t45 -109t16 -120q0 -93 -35.5 -177.5t-95 -145t-142.5 -97t-174 -36.5t-173.5 36.5t-142.5 97t-95 145t-35 177t35 177t95 145.5t142.5 97t173.5 36zM415 383q10 1 23.5 -1t25 -5.5t20.5 -7.5q5 -2 9.5 -4t9 -5t8.5 -5
q20 -13 34 -29q37 -44 42 -105q1 -11 -1 -24t-5.5 -24.5t-7.5 -21.5q-12 -29 -31.5 -50.5t-48.5 -36.5q-15 -7 -31.5 -12t-33.5 -6q-26 -2 -56.5 9t-52.5 28q-57 45 -64 126q-2 22 6.5 49.5t21.5 47.5q3 5 9 12q4 7 9 12q22 22 48 35q7 3 13 5.5t12.5 4.5t13 3.5t13.5 3
t14 1.5zM604 455q-1 -2 -4 -5l-7 -7l-33 -33q-2 1 -6.5 4.5t-5.5 3.5q-40 26 -86 34l-18 2h-29q-16 0 -28 -2q-7 0 -13 -2l-12 -2l-12 -4q-6 -1 -11 -3q-40 -15 -74 -46q-36 -34 -55 -71t-24 -88q-2 -64 14 -107q15 -45 44 -75q4 -3 11 -10l10 -10q3 -3 8.5 -8t10 -8.5
t11.5 -7.5t15 -9q7 -3 13.5 -6.5t13.5 -6t15 -4.5q6 -2 12 -3.5t12 -2.5q2 0 5 -0.5t6 -0.5t6.5 -0.5t6.5 -0.5l2 -1h40q2 1 18 2q12 2 17 3q16 4 31 10q46 18 72 47q1 0 11 10q17 18 27 33q45 70 38 162q-2 18 -6 34t-10 32q-5 12 -13 26v1l-3 5q-1 1 -2.5 3t-2.5 4
q-1 1 -3 4q-4 6 -5 8q4 5 13 14l11 11l49 49l4 4l4 5q3 2 5 3q1 3 3 5l4 4q3 3 5 3q0 -2 -0.5 -13t-0.5 -22v-24q0 -13 0.5 -21.5t0.5 -10.5l11 -12q1 -2 2.5 -3t3.5 -1.5t3 -0.5h4h5h7h5h4q3 0 4 0.5t3 1t2.5 1t2.5 2t3 2.5l4 4q4 5 4 18l1 156v2v2v1v22l-4 6l-7 7l-3 3
q-1 1 -3.5 1.5l-2.5 0.5h-4h-6h-117h-22h-38q-1 0 -3 -1l-5 -3q-9 -9 -10 -12t-1 -14v-9v-6q0 -2 0.5 -5t2 -5t4 -5t6.5 -6q4 -4 20 -4h24h17h15h16q-2 -5 -26 -27l-20 -21q-2 -2 -4 -3l-1 -2l-1 -1h-1z" />
    <glyph glyph-name="uniE64A" unicode="&#xe64a;" 
d="M511 767q91 0 174 -36t143 -97t95.5 -145.5t35.5 -177.5q0 -189 -131 -322.5t-316.5 -133.5t-316.5 133.5t-131 322.5q0 93 35.5 177.5t95 145.5t142.5 97t174 36zM591 572q10 1 20.5 0.5t20.5 -3t20 -6t19.5 -8t17.5 -9.5q38 -23 59 -67q16 -31 20 -65q2 -22 -5 -47.5
t-17 -44.5t-22 -32q-10 -11 -21.5 -19.5t-25.5 -16.5q-31 -16 -65 -19q-55 -6 -110 35q-6 4 -11.5 9t-10.5 10t-9 12q-30 42 -35 92q-3 30 9.5 64t33.5 59q16 20 47 37q29 14 65 19zM244 263v-3v-4v-4v-4q0 -2 0.5 -3.5t0.5 -3.5q0 -5 7 -13l42 -43l10 -11q2 -1 4 -4l4 -4
q2 -1 3 -3q-3 -5 -18 -19l-46 -47q-3 -2 -4 -4l-2 -4q-1 -2 -1 -3v-24q5 -9 11 -16q8 -7 21 -7h8q1 0 5 0.5t4.5 0.5t3.5 2t3.5 3t4.5 5t6 7q5 4 13.5 12.5t13.5 14.5q3 2 7 6.5t7 6.5q2 3 6 7l7 7l36 -37q1 0 6.5 -5.5t10 -10.5t9.5 -10l6 -6q2 -1 5 -2q1 -1 2 -1h24l5 2
q1 0 3 1q0 1 1 1q6 6 8.5 9t4 7.5t1.5 11.5v9q0 3 -0.5 6t-2 5t-2.5 3.5t-6 5.5l-7 8q-42 44 -50 51q0 1 -0.5 1t-0.5 1q-2 1 -2 2q1 1 2.5 3t2.5 3l3 3l3 3l11 11l22 23l8 -5l8 -6t8 -5q43 -25 91 -29q90 -8 159 38q34 24 61 60q14 21 24 43.5t12.5 36.5t4 26t1.5 13v40
q0 2 -0.5 7t-1 11t-0.5 8q-11 70 -65 126t-124 67q-2 1 -12.5 2t-11.5 1h-42q-1 0 -18 -2q-9 -1 -17.5 -3t-17.5 -5t-17.5 -6.5t-16.5 -7.5t-15.5 -9t-13.5 -10q-16 -11 -22 -19l-10 -10q-26 -26 -42 -57q-14 -28 -20.5 -63t-3 -71.5t15.5 -67.5q4 -12 11 -24.5t12 -19.5
t5 -8l-45 -45q0 1 -1.5 2t-3 3t-2.5 4l-4 2l-2 3q-3 2 -12 11t-17 17.5t-12 12.5q-2 2 -5 6q-10 11 -19 11h-10h-3q-8 0 -10.5 -1.5t-8.5 -6.5q-9 -9 -11 -16z" />
    <glyph glyph-name="uniE64B" unicode="&#xe64b;" 
d="M512 569zM430 569q0 34 24 58t58 24q13 0 25.5 -4t23 -11.5t18 -17.5t11.5 -23t4 -26q0 -34 -24 -58t-58 -24q-11 0 -21.5 3t-19.5 8t-17 13t-13 17t-8 19.5t-3 21.5zM512 300zM430 300q0 22 11 41t30 30t41 11q47 0 71 -41q11 -20 11 -41q0 -17 -6.5 -32t-17.5 -26
t-26 -17.5t-32 -6.5q-11 0 -21.5 3t-19.5 8t-17 13t-13 17t-8 19.5t-3 21.5zM512 31zM430 31q0 23 11 41.5t30 29.5t41 11q47 0 71 -41q11 -19 11 -41q0 -34 -24 -58t-58 -24q-11 0 -21.5 3t-19.5 8.5t-17 13t-13 16.5t-8 19.5t-3 21.5z" />
    <glyph glyph-name="uniE64C" unicode="&#xe64c;" 
d="M512 800q-104 0 -199 -40.5t-163.5 -109t-109 -163.5t-40.5 -199t40.5 -199t109 -163.5t163.5 -109t199 -40.5t199 40.5t163.5 109t109 163.5t40.5 199t-40.5 199t-109 163.5t-163.5 109t-199 40.5zM512 753q94 0 180.5 -37t148.5 -99t99 -148.5t37 -180.5
q0 -156 -96 -282q-8 40 -28.5 75.5t-59.5 54.5q-25 12 -36.5 15t-27 6t-45.5 16l-89 39l-1 69q1 1 3 2.5t7 8.5t9.5 16t9 24.5t7.5 33.5q11 -3 16.5 8.5t6.5 27.5q1 2 2 12t1 16.5t-0.5 15t-3.5 12t-9 2.5q7 58 6 75q-5 46 -38 78t-97 35q-57 -3 -94.5 -36.5t-41.5 -76.5
q-2 -18 6 -75q-6 1 -9.5 -3t-4 -12t0 -15t1.5 -16.5t1 -12.5q1 -15 6.5 -26.5t16.5 -8.5q3 -18 7.5 -33.5t9 -24.5t9 -15.5t7.5 -9.5l3 -2l-1 -69q-17 -11 -89 -41q-36 -14 -57.5 -17t-51.5 -18q-69 -34 -88 -132q-98 126 -98 284q0 94 37 180.5t99 148.5t148.5 99t180.5 37
z" />
    <glyph glyph-name="uniE64D" unicode="&#xe64d;" horiz-adv-x="1258" 
d="M319 497q-26 0 -45.5 15.5t-19.5 38.5t19.5 38t44.5 15q24 0 38.5 -14.5t14.5 -38.5q1 -16 -5.5 -28t-19 -19t-27.5 -7zM618 604q24 0 38.5 -14.5t14.5 -38.5t-14.5 -39t-38.5 -15q-25 0 -45 15.5t-20 38.5t20 38t45 15zM848 488h8h8h9l8 -2h8q-28 129 -151 214.5
t-281 85.5q-116 0 -214.5 -48t-156 -132t-57.5 -184q0 -169 172 -289l-43 -129l150 75q8 -1 29.5 -5.5t31.5 -6.5t27 -4.5t31.5 -3.5t29.5 -1q20 0 40 2q-13 44 -13 89q0 56 18 107.5t51.5 93t78 73t100.5 48.5t116 17zM992 208q-16 0 -29 13.5t-13 29.5t13 29.5t29 13.5
q24 0 39 -13t15 -30t-15 -30t-39 -13zM757 208q-11 0 -20.5 6.5t-16 16t-6.5 20.5q0 4 1.5 9t3.5 9t5 8t7 7t8 5t8.5 3.5t9.5 1.5q23 0 38 -13t15 -30q0 -8 -3.5 -15.5t-10.5 -13.5t-17 -10t-22 -4zM1238 154q0 84 -50.5 156t-134 113.5t-178.5 41.5q-75 0 -142.5 -24.5
t-116 -66t-77 -99t-28.5 -121.5q0 -84 48 -155.5t132 -113t184 -41.5q41 0 128 22l118 -65l-32 107q44 34 76.5 71t52.5 83t20 92z" />
    <glyph glyph-name="uniE64E" unicode="&#xe64e;" horiz-adv-x="1756" 
d="M898 797q-78 0 -149 -30.5t-122.5 -81.5t-82 -122t-30.5 -149q0 -105 51.5 -193.5t140 -139.5t192.5 -51t192.5 51t140 139.5t51.5 193.5q0 151 -104 262q-102 108 -250 120q-15 1 -30 1zM849 262l-160 160l30 30l130 -130l228 228l30 -30z" />
    <glyph glyph-name="uniE64F" unicode="&#xe64f;" 
d="M506 -20h-250q-80 0 -136 56t-56 136t56 136t136 56h3h31q12 -1 23 10q4 5 6 10t2 8t-0.5 9.5t-0.5 9.5q0 120 85 205t205 85q112 0 195 -76q3 -2 4 -3.5t2.5 -3.5t3.5 -4q5 -7 12.5 -11t16.5 -4q13 0 22.5 9.5t9.5 22.5q0 8 -3.5 14.5t-10.5 12.5q-1 2 -10 10
q-101 97 -242 97q-70 0 -134 -26.5t-111 -71.5t-76 -107.5t-33 -131.5q-106 0 -181 -75t-75 -181t75 -181t181 -75h250q13 0 22.5 9.5t9.5 22.5t-9.5 22.5t-22.5 9.5zM944 172h-544q-7 0 -11.5 -4.5t-4.5 -11.5v-96q0 -7 4.5 -11.5t11.5 -4.5h544q4 0 8 2t6 6t2 8v96
q-3 13 -16 16zM864 76q-13 0 -22.5 9.5t-9.5 22.5t9.5 22.5t22.5 9.5t22.5 -9.5t9.5 -22.5t-9.5 -22.5t-22.5 -9.5zM944 364h-544q-7 0 -11.5 -4.5t-4.5 -11.5v-96q0 -7 4.5 -11.5t11.5 -4.5h544q4 0 8 2t6 6t2 8v96q-3 13 -16 16zM864 268q-13 0 -22.5 9.5t-9.5 22.5
t9.5 22.5t22.5 9.5t22.5 -9.5t9.5 -22.5t-9.5 -22.5t-22.5 -9.5z" />
    <glyph glyph-name="uniE650" unicode="&#xe650;" 
d="M512 812q-188 0 -331 -122q-137 -116 -171 -291q-10 -49 -10 -99q0 -104 40.5 -199t109 -163.5t163.5 -109t199 -40.5t199 40.5t163.5 109t109 163.5t40.5 199t-40.5 199t-109 163.5t-163.5 109t-199 40.5zM512 -157q-93 0 -177.5 36t-146 97.5t-97.5 146t-36 177.5
t36 177.5t97.5 146t146 97.5t177.5 36t177.5 -36t146 -97.5t97.5 -146t36 -177.5t-36 -177.5t-97.5 -146t-146 -97.5t-177.5 -36zM636 568l-81 -150q-33 -60 -40 -81h-2q-21 49 -121 231h-76l142 -245h-117v-54h137v-74h-137v-55h137v-108h68v109h132v54h-132v75h132v54
h-113l143 244h-72z" />
    <glyph glyph-name="uniE651" unicode="&#xe651;" 
d="M0 492h1024l-64 -640h-896zM928 620l32 -64h-896l64 128h352l32 -64h416z" />
    <glyph glyph-name="uniE652" unicode="&#xe652;" 
d="M451 234q-3 19 -6 28t-4 10l-7 3v-36q-12 -4 -25 -10t-32 -16t-37 -24t-31 -29q-62 -78 -62 -132q0 -31 33 -31h229v106q7 38 0 49q-1 2 -16 15t-27.5 30.5t-14.5 36.5zM718 160q-38 47 -123 79v34q9 7 18 15.5t16 17t13 18t11 18.5t8.5 17.5t6 15t4.5 12t3 8.5l1 3
q2 0 5 1.5t10 9.5t10 21q9 48 -16 47q12 93 -52 120l-16 5q-9 21 -25 36t-36 21.5t-42 8t-44.5 -4.5t-43 -16.5t-38 -28.5t-29.5 -40q-26 -53 -21 -97q-2 1 -4 1t-4.5 -1.5t-3.5 -5.5t-1.5 -11t1.5 -17q4 -22 12 -34t15 -14l6 -1l12 -39q42 -100 138 -109q41 -3 76 17
q-4 -8 -7 -34q-2 -14 -10.5 -28.5t-17.5 -23.5t-18.5 -18t-10.5 -11q-4 -5 -4 -17.5t2 -22.5l2 -10v-105h230q17 0 23.5 14.5t-1.5 34.5q-30 83 -55 114zM512 796q-205 0 -350.5 -145.5t-145.5 -350.5t145.5 -350.5t350.5 -145.5t350.5 145.5t145.5 350.5t-145.5 350.5
t-350.5 145.5zM512 -164q-94 0 -180 37t-148 99t-99 148t-37 180t37 180t99 148t148 99t180 37t180 -37t148 -99t99 -148t37 -180t-37 -180t-99 -148t-148 -99t-180 -37z" />
    <glyph glyph-name="uniE653" unicode="&#xe653;" 
d="M510 601q-78 0 -133 -55t-55 -133t55 -133t133 -55t133 55t55 133t-55 133t-133 55zM509.5 278q-55.5 0 -95 39.5t-39.5 95t39.5 95t95 39.5t95 -39.5t39.5 -95t-39.5 -95t-95 -39.5zM806 267q16 33 25 69t9 74q0 133 -95 228q-100 95 -235 97q-90 0 -166 -43.5
t-120 -118.5t-44 -163q0 -26 4 -50.5t11.5 -47.5t18.5 -45l-134 -229q85 -17 171 -35q25 -28 54 -60t45 -50l16 -18l123 211q1 -1 5 -1h5h5h6q4 0 21 1l123 -211l114 128l172 35zM359 -41q-41 46 -80 84l-125 31l85 147q14 -17 31 -33.5t37 -31t41.5 -26.5t44 -21t44.5 -15z
M510 137q-112 0 -194 79t-82 190q0 24 4.5 48.5t13.5 47t21 43.5t27.5 39.5t33.5 35t38.5 29t42.5 21.5t46 14t49 5q111 0 193 -82.5t82 -194t-82 -193.5t-193 -82zM747 50q-17 -17 -38.5 -40t-35.5 -37l-13 -14l-78 135q36 9 72 28t66 44.5t53 54.5l92 -147q-8 -1 -20 -3
t-42.5 -8t-55.5 -13z" />
    <glyph glyph-name="uniE654" unicode="&#xe654;" 
d="M308 -33l-307 4q0 90 65.5 149t160.5 59q111 3 130 20q6 9 5.5 20t-5.5 27q-20 9 -38.5 20.5t-32.5 24.5q-76 69 -76 145v4q-15 -3 -30 11t-22 38l-13 51q-4 13 -3.5 25t4 21.5t10 16.5t14.5 9l36 11q2 0 4 1l2 4l4 2q1 2 3 1q2 40 13.5 76.5t30 63.5t44 43t52.5 16h120
q49 0 86 -37.5t49 -102.5l-38 -11q-45 0 -73 -47.5t-31 -116.5q-1 0 -10 -2l-29 -9q-14 -4 -20 -25.5t0 -42.5l4 -42q3 -12 12.5 -24.5t17 -19t7.5 -5.5v5q0 -4 4.5 -11.5t5.5 -9.5q29 -92 122 -150q2 -7 1.5 -9.5t-3.5 -6.5q-7 -6 -33.5 -9t-49.5 -3h-23q-60 0 -115 -60
t-55 -124zM1024 -61h-145l-538 3q0 76 54.5 130.5t131.5 54.5l72 6q28 4 35 10q7 7 4 24q0 2 -1 5t-1.5 5t-1.5 5q-3 9 -7.5 18.5t-7.5 14.5l-3 5q0 19 19 32t46 13t46 -13t19 -32q-7 -18 -10 -38q-2 -17 0 -27q0 -4 1 -7l2 -4q1 -3 3 -4q5 -5 18.5 -8t30.5 -4l45 -1
q83 0 135.5 -48t52.5 -140zM904 424l-19 -42q-7 -23 -49 -41v-3q0 -50 -31.5 -93t-75.5 -63q-14 -6 -25 -9.5t-22 -3.5q-4 0 -8 0.5t-8 1.5l-8 2q-4 1 -8.5 2.5t-8.5 3t-9 3.5q-28 13 -55 37q-12 12 -25 28q-8 10 -15 23q-3 5 -9.5 14.5t-11 17.5t-5.5 15q-1 3 -6 10t-5 11
v3q-10 -1 -17 4t-11 13.5t-8 23.5l-8 42q-2 7 -2.5 13.5t0.5 13t3.5 11.5t5.5 9.5t7 7.5t9 4l30 9q9 3 11 2q1 22 5.5 42.5t12.5 38t18.5 32t22.5 24.5t26.5 16t29.5 6h99q30 0 56 -21.5t41.5 -57.5t17.5 -80q2 0 4 -1h2l29 -9q10 -3 16 -12t7 -21.5t-3 -26.5z" />
    <glyph glyph-name="uniE655" unicode="&#xe655;" 
d="M1032 580v103h-384v-103h163v-98q0 -24 -9 -33q-10 -8 -29 -8v-31q50 2 73 22t23 61v87h163v0zM977 612h-273v39h273v-39zM977 612zM869 760h-58v-24h-177v-32h412v32h-177v24zM869 760zM634 411h33q14 13 26.5 27.5t21.5 28.5t16 28t11.5 25t7.5 20t4 14l1 5h-63
q-10 -80 -58 -148v0zM634 411zM925 559l3 -10q1 -6 8 -24.5t16 -35.5t25.5 -39t35.5 -39h33q-48 68 -58 148h-63zM925 559zM1107 411h32q65 56 87 143l1 5h-63q-10 -80 -57 -148zM1107 411zM1398 559q2 -10 7 -26t27.5 -55.5t53.5 -66.5h32q-47 68 -57 148h-63zM1398 559z
M1251 736l12 25h-58l-11 -25h-87v-32h72l-58 -124h167v-98q0 -24 -9.5 -32.5t-28.5 -8.5v-31q49 2 72 22q6 5 10 11t7 14t4.5 17t1.5 19v87h159v32h-159v69h-57v-69h-94l43 92h281v32h-267zM1251 736zM394 672q-110 96 -318 96h-163v-766h163q208 0 318 96q110 97 110 287
q0 37 -4.5 71t-13.5 65t-22 58t-30.5 50.5t-39.5 42.5zM310 180q-73 -67 -220 -67h-57v543h57q147 0 220 -67q73 -66 73 -204t-73 -205v0zM310 180zM-298 306q0 -76 -10 -106q-9 -28 -32 -46q-13 -11 -30 -18.5t-36 -12.5q-38 -9 -93 -10h-13v-111h12h5h1q80 0 141.5 17
t100.5 50q79 68 79 204v495h-125v-462v0zM-298 306zM1036.5 314q-63.5 0 -108 -45t-44.5 -108.5t44.5 -108t108 -44.5t108.5 45t45 108t-45 108t-108.5 45zM1037 54q-45 0 -76 31.5t-31 75.5t31 75.5t76 31.5q29 0 53.5 -14.5t39 -39t14.5 -53.5t-14.5 -54t-39 -39
t-53.5 -14zM1037 54zM538 121q-12 0 -20.5 -8.5t-8.5 -20.5t8.5 -20.5t20.5 -8.5q8 0 15 3.5t11 10.5t4 15q0 12 -9 20.5t-21 8.5zM538 121zM1478 305l-103 -194l-104 194h-47v-288h45v194l106 -190l105 190v-194h46v288h-48zM1478 305zM848 81q-30 -27 -70 -27
q-10 0 -19.5 1.5t-18 5t-16.5 8t-15 10.5t-13 13t-10.5 15t-8 16.5t-5 18t-1.5 19.5q0 44 31 75.5t76 31.5q40 0 70 -27l4 -3l33 32l-4 4q-22 19 -48.5 29.5t-54.5 10.5q-64 0 -108.5 -45t-44.5 -108.5t44.5 -108t108.5 -44.5q14 0 28 2.5t27 7.5t25 12.5t23 17.5l3 3
l-32 33l-4 -3v0zM848 81z" />
    <glyph glyph-name="uniE656" unicode="&#xe656;" 
d="M927 -112q8 -8 8 -18t-8 -18q-14 -14 -31 -3l-1 1q-1 0 -2 1l-1 1l-2 2v1l-191 191q-76 -57 -168.5 -72.5t-183 12.5t-158.5 96q-75 75 -101.5 175.5t0 201.5t101.5 176q45 44 101 72.5t115.5 37t119 0t115.5 -37t101 -72.5q75 -75 101.5 -176t0 -201.5t-101.5 -175.5
q-1 0 -2.5 -2t-2.5 -3l186 -186q4 -2 5 -3zM714 607q-51 50 -116.5 76.5t-132 26.5t-132 -26.5t-115.5 -76.5q-67 -68 -91 -158t0 -180.5t91 -157.5t157.5 -91t180.5 0t158 91q50 50 76.5 116t26.5 132t-26.5 131.5t-76.5 116.5zM714 607z" />
    <glyph glyph-name="uniE657" unicode="&#xe657;" 
d="M460 23q118 0 201 86.5t83 208.5t-83 208.5t-201 86.5t-201 -86.5t-83 -208.5q0 -125 87 -212q83 -82 197 -83v0zM460 70q-99 0 -169 72.5t-70 175.5q0 68 32 125t87 90t120 33q99 0 169 -72.5t70 -175.5q0 -110 -79 -184q-69 -64 -160 -64zM643 121l167 -173
q6 -7 15.5 -7t15.5 7q4 3 5.5 7.5t1.5 9t-1.5 9t-5.5 7.5l-166 172q-2 3 -5.5 5t-7 2.5t-6.5 0t-6.5 -2.5t-6.5 -5q-6 -6 -6 -16t6 -16z" />
    <glyph glyph-name="uniE658" unicode="&#xe658;" 
d="M505 45q-23 3 -38.5 15t-21.5 26.5t-8.5 28.5t-2.5 23l-1 9q-1 0 -1 4.5t1 9.5l1 6q7 4 14 10t12.5 12.5t10 14t8 15t6.5 14.5t5 13t3.5 10t1.5 7l1 3v92q-1 4 -2.5 10.5t-8.5 23.5t-16 30.5t-26.5 24t-37.5 10.5l-64 33q-37 0 -60 -33t-28 -66l-5 -33q1 -34 0 -85
q0 -23 15.5 -50t31.5 -42l15 -16l1 -19q-1 0 0 -5q5 -84 -61 -96h-2q-53 -8 -98.5 -33t-64.5 -44q-22 -28 -22 -118h621q-1 12 -2.5 29.5t-8 50t-12.5 38.5q-12 12 -29.5 24.5t-54 30t-72.5 22.5zM741 702q-67 0 -123 -22.5t-88 -63t-32 -88.5q0 -81 87 -133q4 -2 5.5 -9.5
t-1 -19t-9 -24t-21 -25.5t-34.5 -22q4 -1 11.5 -1.5t29 1.5t41 8t44 21t41.5 38q24 -4 49 -4q100 0 159.5 47.5t59.5 122.5q0 90 -79 139q-58 35 -140 35z" />
    <glyph glyph-name="uniE659" unicode="&#xe659;" 
d="M800 114q-28 13 -52.5 29.5t-35.5 26.5l-10 9q-6 5 -8.5 13t-1.5 14l1 7q12 11 24 43.5t18.5 57t6.5 26.5q12 5 21 14t13 18.5t5.5 18.5t1.5 14v6q0 16 -6.5 25t-13.5 10l-7 1q1 43 1 65.5t-1 45t-5.5 33.5t-11 21t-18.5 17q7 8 10.5 17.5t3.5 15.5l1 6q-1 0 -3 -1t-8 -3
t-12.5 -3t-15.5 -2t-18 1q-9 1 -20.5 4t-20 6t-23.5 5.5t-32 2.5q-31 0 -52.5 -12t-22.5 -37q-41 -7 -52 -52.5t-1 -129.5h-3q-2 0 -6.5 -2t-8 -5.5t-6 -11t-2.5 -17.5q0 -1 -0.5 -6t1.5 -14t5.5 -18.5t12.5 -18.5t22 -14q21 -101 49 -127v-2v-3v-6q0 -2 -0.5 -5.5
t-1.5 -6.5t-3 -6t-5 -5q-33 -36 -98 -65q-7 -2 -17.5 -6.5t-38 -18.5t-48.5 -28.5t-38 -35.5t-17 -40v-63h708v63q0 19 -16.5 39.5t-40 36t-47 28t-40.5 19.5zM398 153q5 2 10 4.5t10 4.5l8 6q5 2 9 4t7 5q-13 8 -24 16t-15 13l-5 5q-5 3 -6.5 9t-1.5 11l1 4q18 18 34 86
q-20 19 -28 44.5t-7 47.5q0 37 23 58q-5 58 2 99q-17 -6 -34 -4q-6 1 -28 7.5t-43 6.5q-11 0 -20 -2t-17.5 -6t-13.5 -11.5t-5 -16.5q-30 -6 -38.5 -39.5t-0.5 -95.5q-2 0 -5.5 -0.5t-9 -7.5t-5.5 -19q1 0 0.5 -4t1 -11t4 -13.5t9 -13.5t16.5 -10q16 -75 36 -95v-1v-6
q0 -3 -0.5 -6t-2 -6t-4.5 -5q-25 -28 -73 -49q-5 -2 -13 -5t-28 -13.5t-35.5 -21t-28.5 -26t-13 -30.5v-46h157q33 79 177 133z" />
    <glyph glyph-name="uniE65A" unicode="&#xe65a;" 
d="M886 -91v101h77q17 -20 25 -42v-59h-102zM949 63h-130v-131q0 -6 -3 -11.5t-9 -9t-12 -3.5q-10 0 -17.5 7t-7.5 17v131h-130q-5 0 -9.5 2t-8 5t-5.5 7.5t-2 9.5q0 7 3.5 12.5t9 9t12.5 3.5h130v130q0 10 7 17t17.5 7t17.5 -7t7 -17v-130h130q10 0 17 -7.5t7 -17.5t-7 -17
t-17 -7zM762 400q-2 1 -3.5 2t-2.5 2q-37 -111 -113 -168h3q-2 -3 -6 -8q-106 -105 -94 -150q0 -1 0.5 -3.5t3.5 -9.5t6.5 -13.5t10.5 -14.5t15.5 -13.5t21 -9.5t27.5 -4h85v-101h-204h-476v59q36 103 250 149q52 11 92 15q18 8 24.5 22t3 27.5t-9.5 26t-12 20.5l-6 8h3
q-71 53 -108 156q-2 -1 -3 -2t-2.5 -2t-3 -1.5t-2.5 -0.5q-11 -4 -23 3t-21.5 22.5t-14.5 34.5q-7 31 0 55.5t24 30.5q2 0 4 0.5t4 -0.5h4q2 -1 4 -1q-5 72 7 129t37 94t62 61.5t77 34.5t86 10q286 0 269 -314q9 2 16 0q17 -5 24 -30t0 -55q-5 -20 -14.5 -35t-21.5 -22
t-23 -4z" />
    <glyph glyph-name="uniE65B" unicode="&#xe65b;" 
d="M227 671v-676h449v51h38l-18 71h57v-228q0 -15 -10 -25.5t-25 -10.5h-537q-15 0 -25.5 10.5t-10.5 25.5v822q0 10 5 18t13 13t18 5h537q15 0 25 -10.5t10 -25.5v-107h-77v67h-449zM463 457q-3 0 -6 -0.5t-6 -1.5l-6 -2l207 -155l203 156l-14 3h-378zM392 333l12 -36h21
v-55h-117l12 -35h105q0 -7 2 -13l153 112l-155 117v-1v-3v-86h-33zM384 133l9 -35h255l-9 35h-255zM494 553l7 -28h-155l10 -41h292l-8 33h118l-9 36h-255zM878 426l-153 -118l152 -112q1 2 1 4t0.5 3.5t0.5 3.5v212zM851 171l-156 114l-32 -24l-11 -9l-11 8l-31 24
l-155 -114q4 -1 8 -1h378zM389 -57q-5 0 -8 -3t-3 -8v-16q0 -5 3 -8.5t8 -3.5h126q3 0 5.5 1.5t4 4t1.5 6.5v16q0 3 -1.5 5.5t-4 4t-5.5 1.5h-126z" />
    <glyph glyph-name="uniE65C" unicode="&#xe65c;" 
d="M672 832q-119 0 -203.5 -84.5t-84.5 -203.5q0 -42 15 -89l-335 -391v-72q0 -23 16.5 -39.5t39.5 -16.5h72v64h128v128h128v128h64l31 31q63 -31 129 -31q119 0 203.5 84.5t84.5 203.5t-84.5 203.5t-203.5 84.5zM672 384q-66 0 -113 47t-47 113t47 113t113 47t113 -47
t47 -113t-47 -113t-113 -47z" />
    <glyph glyph-name="uniE65D" unicode="&#xe65d;" 
d="M766 771v-82v-129v-157v-159q0 -77 0.5 -141.5t0.5 -100.5q0 -25 -12 -41t-29.5 -22t-39 0t-40.5 24q-38 39 -82 81.5t-90.5 85.5t-94 86t-91.5 83q-20 17 -29.5 43t-8.5 53.5t11.5 54t32.5 45.5q40 34 79.5 69.5t81 73t87 78.5t96.5 87q22 20 45.5 27t41.5 2t29.5 -20.5
t11.5 -40.5z" />
    <glyph glyph-name="uniE65E" unicode="&#xe65e;" 
d="M256 768q0 25 11.5 40.5t29 20.5t40.5 -2t47 -27q98 -85 181 -160t164 -148q21 -19 31.5 -45t11 -53.5t-8.5 -53.5t-29 -44q-42 -41 -87.5 -84.5t-91.5 -86.5t-91.5 -85t-87.5 -80q-20 -17 -41 -22.5t-38.5 0.5t-28.5 21t-11 40v100v142q0 76 -0.5 159t-0.5 156v131v81z
" />
    <glyph glyph-name="uniE65F" unicode="&#xe65f;" 
d="M416 704q91 0 157.5 -66.5t66.5 -157.5t-66.5 -157.5t-157.5 -66.5t-157.5 66.5t-66.5 157.5t66.5 157.5t157.5 66.5zM416 768q-120 0 -204 -84t-84 -204t84 -204t204 -84t204 84t84 204t-84 204t-204 84zM832 32h-6q-2 0 -6.5 0.5t-7.5 2t-6 3.5l-192 192q-9 10 -9 23
t9 22q7 7 15 9t16 0t14 -9l192 -192q10 -9 10 -22t-10 -23q-1 -6 -19 -6z" />
    <glyph glyph-name="uniE660" unicode="&#xe660;" 
d="M809 124l-31 -31l147 -148l31 32zM455 826q-106 0 -196 -52.5t-142 -142t-52 -195.5t52 -196t142 -142t196 -52t195.5 52t142 142t52.5 196q0 63 -20 122.5t-56 107.5t-84 84t-107.5 56t-122.5 20zM455 90q-94 0 -173.5 46.5t-126 126t-46.5 173.5q0 70 27.5 134t74 110
t110.5 73.5t134 27.5t134 -27.5t110.5 -73.5t73.5 -110t27 -134q0 -41 -9 -79.5t-26 -72.5t-40.5 -64t-53.5 -53.5t-64 -40.5t-73 -26.5t-79 -9.5z" />
    <glyph glyph-name="uniE661" unicode="&#xe661;" 
d="M788 208q-10 2 -26.5 -6.5t-27.5 -17.5l-11 -10q34 -21 59 -46.5t36.5 -46.5t18 -39t6.5 -28l1 -10q28 14 42 38q8 13 10.5 25.5t-3.5 32t-23 43.5q-41 58 -82 65zM335 604q-4 0 -9.5 -3t-10.5 -8t-10 -10.5t-9 -10.5t-7 -9.5t-4 -7.5l-2 -3q22 -6 42 -14t35 -17
t27.5 -18.5t21.5 -18.5t16 -18t11.5 -16t7 -12.5t3.5 -8.5l2 -4q2 4 6 9.5t12.5 21t11.5 27.5q3 13 1.5 25t-12.5 26t-35 31q-57 44 -98 39zM511 744q-91 0 -173.5 -35t-142.5 -94.5t-95.5 -142t-35.5 -172.5t35.5 -172t95.5 -141.5t142.5 -95t173.5 -35.5q164 0 290 107
q31 7 26 32q-7 30 -40 81.5t-78 78.5q-1 0 -1.5 0.5t-2.5 0.5l-4 2q-2 0 -5 0.5t-6 0.5t-7 -1t-7.5 -3t-7.5 -5t-7 -8q-2 0 -4.5 -0.5t-13 1.5t-22 7t-31 19t-41.5 35q-6 5 -24.5 23t-24.5 24t-21 21.5t-20 22.5t-15 20.5t-12.5 23t-6 22t-2 24t5.5 23.5q-1 1 0.5 4.5
t-2.5 13t-11 20t-25.5 26t-44.5 30.5q-19 11 -35 17.5t-26 9.5t-18.5 1.5t-12.5 -2.5t-7.5 -6.5t-4.5 -7.5l-2 -7l-4 -11q-5 -12 -7.5 -21.5t-5 -24t-1 -29.5t6.5 -30q11 -28 29.5 -61t68.5 -97t119 -129q166 -157 253 -166h11q-93 -51 -199 -51q-113 0 -209 55.5
t-151.5 150.5t-55.5 207t55.5 207.5t151.5 151t209 55.5t209 -55.5t151.5 -151t55.5 -207.5v-4v-3h31v3v4q0 52 -11.5 102t-34 93.5t-53 82t-69 69t-82.5 52.5t-94.5 33.5t-102.5 11.5z" />
    <glyph glyph-name="uniE662" unicode="&#xe662;" 
d="M420 319q9 -52 47 -91t88 -39q34 0 63.5 19t48 48.5t23.5 62.5q26 12 26 40q0 17 -11 29q4 19 4 38q0 15 -2.5 29t-7 27t-11.5 25t-15.5 22t-18.5 19t-21.5 16t-24 12t-26 7.5t-27.5 2.5q-42 0 -77.5 -21.5t-56 -58.5t-20.5 -80q0 -9 1 -18.5t3 -19.5q-11 -12 -11 -29
q0 -28 26 -40v0zM852 66q-41 35 -91 59.5t-104 36.5l-8 2h-7q-4 0 -9 -2q-32 -16 -78 -16t-78 16h-3l-4 2h-2h-5q-2 0 -4 -1q-114 -23 -201 -97q-7 -6 -7 -15v-39q0 -6 2.5 -10.5t7.5 -7.5t10 -3h568q3 0 6 1t5.5 3t4.5 4.5t3 5.5t1 7v39q0 9 -7 15v0zM852 66zM165 194
q-13 0 -22.5 9t-9.5 22v158q0 13 9.5 22.5t22.5 9.5t22 -9.5t9 -22.5v-158q0 -8 -4 -15.5t-11.5 -11.5t-15.5 -4v0zM859 -122h-631q-39 0 -67 27.5t-28 66.5v64q0 13 9.5 22.5t22.5 9.5t22 -9.5t9 -22.5v-64q0 -13 9.5 -22t22.5 -9h631q13 0 22.5 9.5t9.5 22.5v631
q0 9 -4.5 16t-11.5 11.5t-16 4.5h-631q-9 0 -16.5 -3t-11.5 -6.5t-4 -7.5v-46q0 -7 -2.5 -12.5t-6.5 -10t-10 -7t-12 -2.5q-13 0 -22.5 9.5t-9.5 22.5v46q0 33 28 56.5t67 23.5h631q20 0 37.5 -7.5t30 -20t20 -30t7.5 -37.5v-631q0 -16 -5 -30t-13.5 -26t-20 -20.5
t-26 -13.5t-30.5 -5v0zM196 446h-94q-14 0 -23 9.5t-9 22.5t9 22.5t23 9.5h94q13 0 22.5 -9.5t9.5 -22.5t-9.5 -22.5t-22.5 -9.5v0zM196 99h-94q-14 0 -23 9.5t-9 22.5q0 5 1.5 9.5t4.5 8.5t7 7t8.5 4.5t10.5 1.5h94q13 0 22.5 -9t9.5 -22t-9.5 -22.5t-22.5 -9.5v0z" />
    <glyph glyph-name="uniE663" unicode="&#xe663;" 
d="M863 35q-34 -35 -73.5 -62t-84 -45.5t-93.5 -28.5t-100 -10q-101 0 -191 38t-160 108q-68 68 -106 158t-38 190q0 102 38 192t106 158q70 70 160 108t191 38q102 0 192 -38t159 -108q68 -68 106 -158t38 -192q0 -100 -38 -190t-106 -158zM823 694q-40 40 -88.5 68.5
t-105.5 43.5t-117 15q-89 0 -169 -33.5t-141 -93.5q-61 -61 -95 -141t-34 -170q0 -88 34.5 -168t94.5 -141q61 -60 141 -93.5t169 -33.5q60 0 117 15.5t105.5 43.5t88.5 68q39 40 67.5 88.5t44.5 105t16 115.5q0 90 -34 170t-94 141zM711 104l-47 -23l-77 162l-3 6
q36 15 54 20q17 5 22 -9q47 -98 58 -122q5 -12 3 -19.5t-6 -11.5zM373 290q-30 57 -47 109t-20.5 89t-0.5 67.5t12 51t18 34t15 20.5l7 7q5 -12 77 -164q-13 0 -14 -12.5t7 -44.5q3 -16 14.5 -43.5t26 -56t29.5 -54t25 -39.5q7 -9 14.5 -14.5t12.5 -6.5t9.5 -0.5t6.5 1.5
l2 2l73 -163l-23 -6q-84 -9 -175 110q-35 48 -69 113zM357 668zM503 536l-46 -22l-77 161l-3 5q36 15 54 21q8 2 13 0t7 -6l1 -3q47 -99 59 -123q3 -7 3.5 -12.5t-1.5 -9t-4 -6.5t-4 -4z" />
    <glyph glyph-name="uniE664" unicode="&#xe664;" 
d="M512 802q-102 0 -195 -40t-160 -107t-107 -160t-40 -195q0 -82 25.5 -158.5t72 -138t108 -108t138 -72t158.5 -25.5q102 0 195 40t160 107t107 160t40 195t-40 195t-107 160t-160 107t-195 40zM825 423l-351 -338q-7 -7 -16 -11q-16 -12 -37 -10.5t-36 16.5l-151 150
q-8 9 -12 19.5t-4 21t4 21t12 18.5q17 17 40.5 17t39.5 -17l114 -113l317 306q6 6 14.5 10.5t17 5.5t17 0t16.5 -5.5t15 -10.5q16 -17 16 -40t-16 -40z" />
    <glyph glyph-name="uniE665" unicode="&#xe665;" 
d="M512 748q-61 0 -119 -16t-107.5 -45t-91 -70.5t-70 -90.5t-45 -107t-16.5 -119q0 -73 23 -141.5t64.5 -124t96.5 -97t123.5 -64t141.5 -22.5q91 0 174 35.5t143 95.5t95.5 143t35.5 175q0 61 -16 119t-45 107t-70 90.5t-90.5 70.5t-107.5 45t-119 16zM471 41
q-63 77 -132 133.5t-122 75.5l164 99l80 -154q2 7 7 18.5t22.5 46t37 67.5t49.5 77t61.5 80.5t72.5 71.5t82 56q-1 -15 -5 -52t-5 -56.5t3.5 -50.5t16.5 -59q-42 -9 -111.5 -75t-129.5 -143.5t-91 -134.5z" />
    <glyph glyph-name="uniE666" unicode="&#xe666;" 
d="M813 87q-4 2 -51.5 26.5t-87.5 38t-91 19.5q10 8 18 18t16.5 28t13 28.5t16 40t15.5 40.5v2l1 1q12 -2 18 2q10 6 16 32t6 46q0 15 -4 22.5t-8 7.5l-4 1h-1v2v6q0 8 1 25.5t1.5 31t-0.5 29t-4 25.5q-3 12 -6.5 28t-5.5 22.5t-7 15.5t-13 18q-29 31 -88 51t-121 7
q-18 -4 -27 -13t-9.5 -17t-2.5 -14.5t-7 -6.5q-10 1 -18 -5t-13.5 -13.5t-11.5 -21.5t-9 -24.5t-8 -26.5q-3 -13 -3.5 -32t0.5 -45t1 -34q0 -2 1 -5v-3h-2h-2q-1 0 -2 -0.5t-2.5 -1.5t-3 -2.5t-3 -3.5t-2 -5.5t-1 -8t-0.5 -9.5q0 -20 6 -46t16 -32q6 -4 18 -2q1 0 2 -1v-2
q5 -13 15.5 -41.5t15.5 -39.5t13.5 -28.5t16.5 -28t18 -17.5q-40 -5 -79 -17.5t-59 -21.5t-52 -26q-9 -4 -13.5 -6.5t-11.5 -5.5l-13 -7q-91 -41 -107 -92q-1 -5 -1 -9v-89h819v89q0 24 -34 54q-29 27 -75 47z" />
    <glyph glyph-name="uniE667" unicode="&#xe667;" 
d="M1024 -148q0 -20 -14 -34t-34 -14h-928q-20 0 -34 14t-14 34v0q0 7 1 19t7.5 46t18.5 63t38.5 61t62.5 49q41 21 70.5 25t78.5 24q44 18 74.5 32t39.5 19l9 5l1 94q-5 4 -11.5 11t-19.5 37t-18 70q-6 -1 -10.5 0t-8 5t-6 9t-4 11.5t-2.5 12t-2 11.5q0 3 -1.5 16.5
t-1.5 23t0.5 21t5 16.5t12.5 3q-10 79 -8 104q4 38 27 72t65.5 57.5t94.5 26.5q88 -4 133.5 -48.5t51.5 -107.5q2 -14 -0.5 -39.5t-7.5 -63.5q8 1 12.5 -4t5.5 -16.5t0.5 -20.5t-2 -23t-1.5 -17q-2 -21 -9.5 -37t-23.5 -12q-5 -39 -17 -68.5t-22 -39.5l-10 -9l1 -94
q3 -2 9.5 -5.5t38 -17.5t75.5 -32q49 -20 78.5 -25t70.5 -26q36 -17 62.5 -48.5t38.5 -63t18.5 -60.5t7.5 -48z" />
    <glyph glyph-name="uniE668" unicode="&#xe668;" 
d="M512 598q-25 0 -48 -7.5t-41.5 -21.5t-32.5 -32.5t-21.5 -41.5t-7.5 -48q0 -31 12 -58.5t32 -48t48 -32.5t59 -12q41 0 75.5 20.5t55 55t20.5 75.5q0 63 -44.5 107t-106.5 44zM512 812q-104 0 -199 -41t-163.5 -109.5t-109 -163t-40.5 -198.5t40.5 -199t109 -163.5
t163.5 -109t199 -40.5t199 40.5t163.5 109t109 163.5t40.5 199t-40.5 198.5t-109 163t-163.5 109.5t-199 41zM776 -5q-5 0 -10.5 5t-9.5 9l-3 4q-15 98 -83 162.5t-158 64.5t-158 -64.5t-83 -162.5q-1 -2 -2 -4.5t-7 -8t-14 -5.5q-19 -2 -28 4t-9 8v6q3 88 54 158.5
t132 102.5q-42 29 -67 74.5t-25 98.5q0 86 60.5 147t146.5 61q42 0 80.5 -16.5t66.5 -44.5t44 -66.5t16 -80.5q0 -35 -11.5 -68t-32 -59.5t-48.5 -45.5q32 -12 60 -31.5t50.5 -44.5t39 -54t26 -62.5t10.5 -68.5q0 -1 -0.5 -2.5t-2.5 -5t-6 -6t-11 -4.5t-17 0zM776 -5z" />
    <glyph glyph-name="uniE669" unicode="&#xe669;" 
d="M512 -21h-72h-88h-72q-44 0 -76 18q-52 30 -61 91q-4 27 0 85q5 63 22 115q17 50 47 83q37 41 99 46q15 2 30 -8q3 -2 10 -6.5t10.5 -7t9.5 -6t11 -6.5l10 -6q61 -33 122 -33q66 1 128 39q23 14 39 25q9 6 18 8t20 1q25 -3 46.5 -12t38.5 -26q25 -22 44 -63
q18 -39 28 -100q9 -52 7 -108q0 -25 -8 -47t-24 -40q-29 -31 -73 -39q-18 -3 -34 -3h-232zM310 587q-2 81 58.5 141.5t143.5 60.5q84 0 144 -60.5t59 -143.5q0 -82 -60 -141.5t-143 -59.5q-84 0 -144 60.5t-58 142.5z" />
  </font>
</defs>
</svg>
